<svg width="7115" height="3317" xmlns="http://www.w3.org/2000/svg" xmlns:xlink="http://www.w3.org/1999/xlink" overflow="hidden"><defs><clipPath id="clip0"><rect x="116" y="432" width="7115" height="3317"/></clipPath></defs><g clip-path="url(#clip0)" transform="translate(-116 -432)"><rect x="171" y="848" width="6061" height="2020" stroke="#2F528F" stroke-width="10.3125" stroke-miterlimit="8" fill="none"/><path d="M10.6593-5.15625 6067.4-5.15589 6067.4 5.15661 10.6593 5.15625ZM54.524 30.2886 0.00450693-9.32571e-08 54.524-30.2886C57.0134-31.6716 60.1525-30.7747 61.5355-28.2853 62.9185-25.796 62.0216-22.6568 59.5322-21.2739L13.126 4.50737 13.126-4.50737 59.5322 21.2739C62.0216 22.6569 62.9185 25.796 61.5355 28.2853 60.1525 30.7747 57.0134 31.6716 54.524 30.2886ZM6023.53-30.2883 6078.05 0.000360805 6023.53 30.289C6021.04 31.672 6017.9 30.7751 6016.52 28.2857 6015.14 25.7963 6016.03 22.6572 6018.52 21.2742L6064.93-4.50702 6064.93 4.50774 6018.52-21.2735C6016.03-22.6565 6015.14-25.7956 6016.52-28.285 6017.9-30.7743 6021.04-31.6712 6023.53-30.2883Z" fill="#4472C4" transform="matrix(-1 0 0 1 6249.06 2975)"/><path d="M5.15625 10.5956 5.15661 2009.36-5.15589 2009.36-5.15625 10.5956ZM-30.2886 54.524 8.78194e-08 0.00450693 30.2886 54.524C31.6716 57.0134 30.7747 60.1525 28.2854 61.5355 25.796 62.9185 22.6569 62.0216 21.2739 59.5322L-4.50737 13.126 4.50738 13.126-21.2739 59.5322C-22.6568 62.0216-25.796 62.9185-28.2853 61.5355-30.7747 60.1525-31.6716 57.0134-30.2886 54.524ZM30.289 1965.46 0.00036913 2019.98-30.2883 1965.46C-31.6712 1962.97-30.7744 1959.83-28.285 1958.45-25.7956 1957.07-22.6565 1957.96-21.2735 1960.45L4.50773 2006.86-4.50702 2006.86 21.2742 1960.45C22.6572 1957.96 25.7963 1957.07 28.2857 1958.45 30.775 1959.83 31.6719 1962.97 30.289 1965.46Z" fill="#4472C4" transform="matrix(1 0 0 -1 6320 2866.98)"/><text fill="#44546A" font-family="Calibri,Calibri_MSFontService,sans-serif" font-weight="400" font-size="220" transform="matrix(1 0 0 1 2636.06 3193)">Longueur<tspan font-size="220" x="3754.02" y="-1241">Largeur</tspan></text><path d="M10.6219-5.15624 323.9-5.1559 323.9 5.1566 10.6218 5.15626ZM54.524 30.2887 0.00450693-1.23942e-07 54.5241-30.2886C57.0134-31.6715 60.1526-30.7746 61.5355-28.2853 62.9185-25.7959 62.0216-22.6568 59.5322-21.2738L13.126 4.50739 13.126-4.50736 59.5322 21.2739C62.0215 22.6569 62.9184 25.7961 61.5355 28.2854 60.1525 30.7748 57.0133 31.6717 54.524 30.2887ZM279.997-30.2883 334.516 0.000360292 279.997 30.2889C277.507 31.6719 274.368 30.775 272.985 28.2856 271.602 25.7963 272.499 22.6571 274.989 21.2742L321.395-4.50703 321.395 4.50772 274.989-21.2736C272.499-22.6566 271.602-25.7957 272.985-28.2851 274.368-30.7744 277.508-31.6713 279.997-30.2883Z" fill="#ED7D31" transform="matrix(1 0 0 -1 1189 738)"/><path d="M188.653 730.909 1182.71 736.995 1182.65 747.308 188.589 741.221ZM232.338 766.622 178.005 736 232.709 706.046C235.206 704.678 238.34 705.594 239.708 708.092 241.075 710.59 240.159 713.723 237.661 715.091L191.098 740.588 191.153 731.573 237.401 757.638C239.882 759.036 240.759 762.181 239.361 764.662 237.963 767.142 234.818 768.02 232.338 766.622ZM1138.97 711.595 1193.3 742.217 1138.6 772.171C1136.1 773.539 1132.97 772.622 1131.6 770.125 1130.23 767.627 1131.15 764.493 1133.64 763.126L1180.21 737.629 1180.15 746.644 1133.91 720.579C1131.42 719.18 1130.55 716.036 1131.94 713.555 1133.34 711.074 1136.49 710.197 1138.97 711.595Z" fill="#ED7D31"/><text fill="#ED7D31" font-family="Calibri,Calibri_MSFontService,sans-serif" font-weight="400" font-size="220" transform="matrix(1 0 0 1 1287.02 705)">l2<tspan font-size="220" x="-668.752" y="6">l1</tspan></text><path d="M10.6219-5.15624 323.9-5.1559 323.9 5.1566 10.6218 5.15626ZM54.524 30.2887 0.00450693-1.23942e-07 54.5241-30.2886C57.0134-31.6715 60.1526-30.7746 61.5355-28.2853 62.9185-25.7959 62.0216-22.6568 59.5322-21.2738L13.126 4.50739 13.126-4.50736 59.5322 21.2739C62.0215 22.6569 62.9184 25.7961 61.5355 28.2854 60.1525 30.7748 57.0133 31.6717 54.524 30.2887ZM279.997-30.2883 334.516 0.000360292 279.997 30.2889C277.507 31.6719 274.368 30.775 272.985 28.2856 271.602 25.7963 272.499 22.6571 274.989 21.2742L321.395-4.50703 321.395 4.50772 274.989-21.2736C272.499-22.6566 271.602-25.7957 272.985-28.2851 274.368-30.7744 277.508-31.6713 279.997-30.2883Z" fill="#ED7D31" transform="matrix(1 0 0 -1 2874 737)"/><text fill="#ED7D31" font-family="Calibri,Calibri_MSFontService,sans-serif" font-weight="400" font-size="220" transform="matrix(1 0 0 1 2972.41 704)">l4</text><path d="M10.6187-5.14806 1342.62-4.12074 1342.61 6.19175 10.6108 5.16443ZM54.5006 30.3307 0.00450622 4.05781e-06 54.5474-30.2466C57.0378-31.6276 60.1762-30.7283 61.5573-28.2379 62.9383-25.7475 62.039-22.609 59.5486-21.228L13.1225 4.5175 13.1294-4.49725 59.5158 21.3198C62.0041 22.7047 62.8986 25.8445 61.5137 28.3328 60.1288 30.8211 56.9889 31.7156 54.5006 30.3307ZM1298.74-29.287 1353.23 1.0437 1298.69 31.2903C1296.2 32.6713 1293.06 31.772 1291.68 29.2816 1290.3 26.7912 1291.2 23.6527 1293.69 22.2717L1340.12-3.47379 1340.11 5.54095 1293.72-20.2761C1291.24-21.661 1290.34-24.8008 1291.73-27.2891 1293.11-29.7774 1296.25-30.6719 1298.74-29.287Z" fill="#ED7D31" transform="matrix(1 0 0 -1 3209 744.044)"/><text fill="#ED7D31" font-family="Calibri,Calibri_MSFontService,sans-serif" font-weight="400" font-size="220" transform="matrix(1 0 0 1 3825.15 710)">l5</text><path d="M10.6219-5.15624 323.9-5.1559 323.9 5.1566 10.6218 5.15626ZM54.524 30.2887 0.00450693-1.23942e-07 54.5241-30.2886C57.0134-31.6715 60.1526-30.7746 61.5355-28.2853 62.9185-25.7959 62.0216-22.6568 59.5322-21.2738L13.126 4.50739 13.126-4.50736 59.5322 21.2739C62.0215 22.6569 62.9184 25.7961 61.5355 28.2854 60.1525 30.7748 57.0133 31.6717 54.524 30.2887ZM279.997-30.2883 334.516 0.000360292 279.997 30.2889C277.507 31.6719 274.368 30.775 272.985 28.2856 271.602 25.7963 272.499 22.6571 274.989 21.2742L321.395-4.50703 321.395 4.50772 274.989-21.2736C272.499-22.6566 271.602-25.7957 272.985-28.2851 274.368-30.7744 277.508-31.6713 279.997-30.2883Z" fill="#ED7D31" transform="matrix(1 0 0 -1 4562 743)"/><text fill="#ED7D31" font-family="Calibri,Calibri_MSFontService,sans-serif" font-weight="400" font-size="220" transform="matrix(1 0 0 1 4659.45 710)">l6</text><path d="M1535.63 730.854 2847.03 732.126 2847.02 742.439 1535.62 741.167ZM1579.49 766.341 1525 736 1579.55 705.764C1582.04 704.384 1585.18 705.284 1586.56 707.774 1587.94 710.265 1587.04 713.403 1584.55 714.784L1538.12 740.52 1538.13 731.505 1584.51 757.332C1587 758.717 1587.89 761.857 1586.51 764.345 1585.12 766.833 1581.98 767.727 1579.49 766.341ZM2803.17 706.951 2857.66 737.293 2803.11 767.528C2800.62 768.909 2797.48 768.009 2796.1 765.518 2794.72 763.028 2795.62 759.889 2798.11 758.509L2844.54 732.773 2844.53 741.787 2798.15 715.961C2795.66 714.576 2794.77 711.436 2796.15 708.948 2797.54 706.46 2800.68 705.566 2803.17 706.951Z" fill="#ED7D31"/><text fill="#ED7D31" font-family="Calibri,Calibri_MSFontService,sans-serif" font-weight="400" font-size="220" transform="matrix(1 0 0 1 2134.98 710)">l3</text><path d="M10.6261-5.14586 1346.93-3.83928 1346.92 6.47322 10.616 5.16663ZM54.4944 30.3419 0.00450622 4.64497e-06 54.5536-30.2353C57.0443-31.6158 60.1826-30.7159 61.5631-28.2252 62.9437-25.7345 62.0437-22.5962 59.553-21.2157L13.1216 4.52021 13.1304-4.49454 59.5114 21.3321C61.9994 22.7175 62.8932 25.8575 61.5078 28.3455 60.1224 30.8335 56.9824 31.7273 54.4944 30.3419ZM1303.06-29.0146 1357.55 1.32736 1303 31.5627C1300.51 32.9432 1297.37 32.0432 1295.99 29.5525 1294.61 27.0618 1295.51 23.9236 1298 22.543L1344.43-3.19284 1344.42 5.8219 1298.04-20.0047C1295.55-21.3901 1294.66-24.5301 1296.04-27.0181 1297.43-29.5061 1300.57-30.4 1303.06-29.0146Z" fill="#ED7D31" transform="matrix(1 0 0 -1 4891 743.328)"/><text fill="#ED7D31" font-family="Calibri,Calibri_MSFontService,sans-serif" font-weight="400" font-size="220" transform="matrix(1 0 0 1 5507.87 710)">l7</text><path d="M1184.5 848.5 1187.63 2868.2" stroke="#FFC000" stroke-width="20.625" stroke-miterlimit="8" stroke-dasharray="165 61.875" fill="none" fill-rule="evenodd"/><path d="M0 0 3.35125 2019.7" stroke="#FF0000" stroke-width="20.625" stroke-miterlimit="8" stroke-dasharray="165 61.875" fill="none" fill-rule="evenodd" transform="matrix(-1 0 0 1 1525.85 848.5)"/><path d="M4545.5 847.5 4545.5 2867.48" stroke="#70AD47" stroke-width="20.625" stroke-miterlimit="8" stroke-dasharray="165 61.875" fill="none" fill-rule="evenodd"/><path d="M0 0 12.013 2019.7" stroke="#70AD47" stroke-width="20.625" stroke-miterlimit="8" stroke-dasharray="165 61.875" fill="none" fill-rule="evenodd" transform="matrix(-1 0 0 1 2870.51 848.5)"/><path d="M3201.5 847.5 3201.61 2867.65" stroke="#FF0000" stroke-width="20.625" stroke-miterlimit="8" stroke-dasharray="165 61.875" fill="none" fill-rule="evenodd"/><path d="M4885.5 848.5 4885.5 2868.2" stroke="#FF0000" stroke-width="20.625" stroke-miterlimit="8" stroke-dasharray="165 61.875" fill="none" fill-rule="evenodd"/><path d="M0 0 565.766 0.000360892" stroke="#FF0000" stroke-width="20.625" stroke-miterlimit="8" stroke-dasharray="165 61.875" fill="none" fill-rule="evenodd" transform="matrix(-1 0 0 1 1039.27 3463.5)"/><text fill="#44546A" font-family="Calibri,Calibri_MSFontService,sans-serif" font-weight="400" font-size="220" transform="matrix(1 0 0 1 1120.98 3558)">Pliage</text><path d="M0 0 565.766 0.000360892" stroke="#FFC000" stroke-width="20.625" stroke-miterlimit="8" stroke-dasharray="165 61.875" fill="none" fill-rule="evenodd" transform="matrix(-1 0 0 1 4729.27 3463.5)"/><text fill="#44546A" font-family="Calibri,Calibri_MSFontService,sans-serif" font-weight="400" font-size="220" transform="matrix(1 0 0 1 4811.48 3558)">Pliage étape 4</text></g></svg>