<svg width="2077" height="2411" xmlns="http://www.w3.org/2000/svg" xmlns:xlink="http://www.w3.org/1999/xlink" overflow="hidden"><defs><clipPath id="clip0"><rect x="1119" y="14" width="2077" height="2411"/></clipPath></defs><g clip-path="url(#clip0)" transform="translate(-1119 -14)"><path d="M2942.5 915.5 2942.5 1280.74" stroke="#ED7D31" stroke-width="6.875" stroke-miterlimit="8" stroke-dasharray="55 20.625" fill="none" fill-rule="evenodd"/><path d="M1458.5 915.5 1458.5 1280.74" stroke="#ED7D31" stroke-width="6.875" stroke-miterlimit="8" stroke-dasharray="55 20.625" fill="none" fill-rule="evenodd"/><path d="M2200 93.0002 2200 2070.6" stroke="#DAE3F3" stroke-width="10.3125" stroke-miterlimit="8" fill="none" fill-rule="evenodd"/><path d="M1212 1082 2200 93.0002 3188 1082 2200 2071Z" stroke="#2F528F" stroke-width="10.3125" stroke-miterlimit="8" fill="none" fill-rule="evenodd"/><path d="M18.7424 13.616 972.872 952.257 968.051 957.158 13.921 18.517ZM9.96113 29.0876 0 0 29.2468 9.48366ZM976.835 941.689 986.796 970.777 957.55 961.293Z" fill="#4472C4" transform="matrix(-1 0 0 1 2134.3 42.5001)"/><text fill="#4472C4" font-family="Calibri,Calibri_MSFontService,sans-serif" font-weight="400" font-size="110" transform="matrix(0.717893 -0.696153 0.696153 0.717893 1414.79 683)">Largeur feuille</text><path d="M2005.5 593.5 2412.39 593.501" stroke="#70AD47" stroke-width="6.875" stroke-miterlimit="8" stroke-dasharray="55 20.625" fill="none" fill-rule="evenodd"/><path d="M1708.5 915.5 1708.5 1280.74" stroke="#ED7D31" stroke-width="6.875" stroke-miterlimit="8" stroke-dasharray="55 20.625" fill="none" fill-rule="evenodd"/><path d="M0 0 1975.99 0.000360892" stroke="#DAE3F3" stroke-width="10.3125" stroke-miterlimit="8" fill="none" fill-rule="evenodd" transform="matrix(-1 0 0 1 3187.99 1082)"/><text fill="#70AD47" font-family="Calibri,Calibri_MSFontService,sans-serif" font-weight="400" font-size="110" transform="matrix(1 0 0 1 2254.03 352)">m<tspan font-size="110" x="87.6563" y="0">1</tspan><tspan font-size="110" x="4.16846" y="234">m2</tspan><tspan font-size="110" x="1.06616" y="473">m</tspan><tspan font-size="110" x="88.7224" y="473">3</tspan><tspan font-size="110" x="1.33496" y="717">m4</tspan><tspan font-size="110" x="-2.13599" y="968">m5</tspan><tspan font-size="110" x="-2.13599" y="1212">m6</tspan><tspan font-size="110" x="4.16846" y="1443">m7</tspan><tspan fill="#ED7D31" font-size="110" x="-775.474" y="830">m</tspan><tspan fill="#ED7D31" font-size="110" x="-687.817" y="830">1</tspan><tspan fill="#ED7D31" font-size="110" x="-517.228" y="830">m2</tspan><tspan fill="#ED7D31" font-size="110" x="-289.354" y="830">m3</tspan><tspan fill="#ED7D31" font-size="110" x="-31.8411" y="835">m4</tspan><tspan fill="#ED7D31" font-size="110" x="209.516" y="829">m5</tspan><tspan fill="#ED7D31" font-size="110" x="450.213" y="829">m6</tspan><tspan fill="#ED7D31" font-size="110" x="708.592" y="820">m7</tspan></text><path d="M2672.5 915.5 2672.5 1280.74" stroke="#ED7D31" stroke-width="6.875" stroke-miterlimit="8" stroke-dasharray="55 20.625" fill="none" fill-rule="evenodd"/><path d="M2445.5 915.5 2445.5 1280.74" stroke="#ED7D31" stroke-width="6.875" stroke-miterlimit="8" stroke-dasharray="55 20.625" fill="none" fill-rule="evenodd"/><path d="M2205.5 915.5 2205.5 1280.74" stroke="#ED7D31" stroke-width="6.875" stroke-miterlimit="8" stroke-dasharray="55 20.625" fill="none" fill-rule="evenodd"/><path d="M1948.5 915.5 1948.5 1280.74" stroke="#ED7D31" stroke-width="6.875" stroke-miterlimit="8" stroke-dasharray="55 20.625" fill="none" fill-rule="evenodd"/><path d="M2005.5 365.5 2412.39 365.5" stroke="#70AD47" stroke-width="6.875" stroke-miterlimit="8" stroke-dasharray="55 20.625" fill="none" fill-rule="evenodd"/><path d="M2005.5 834.5 2412.39 834.5" stroke="#70AD47" stroke-width="6.875" stroke-miterlimit="8" stroke-dasharray="55 20.625" fill="none" fill-rule="evenodd"/><path d="M2005.5 1081.5 2412.39 1081.5" stroke="#70AD47" stroke-width="6.875" stroke-miterlimit="8" stroke-dasharray="55 20.625" fill="none" fill-rule="evenodd"/><path d="M2005.5 1334.5 2412.39 1334.5" stroke="#70AD47" stroke-width="6.875" stroke-miterlimit="8" stroke-dasharray="55 20.625" fill="none" fill-rule="evenodd"/><path d="M2005.5 1578.5 2412.39 1578.5" stroke="#70AD47" stroke-width="6.875" stroke-miterlimit="8" stroke-dasharray="55 20.625" fill="none" fill-rule="evenodd"/><path d="M2005.5 1804.5 2412.39 1804.5" stroke="#70AD47" stroke-width="6.875" stroke-miterlimit="8" stroke-dasharray="55 20.625" fill="none" fill-rule="evenodd"/><path d="M0 0 203.846 0.000360892" stroke="#ED7D31" stroke-width="6.875" stroke-miterlimit="8" stroke-dasharray="55 20.625" fill="none" fill-rule="evenodd" transform="matrix(-1 0 0 1 1654.35 2157.5)"/><text fill="#ED7D31" font-family="Calibri,Calibri_MSFontService,sans-serif" font-weight="400" font-size="110" transform="matrix(1 0 0 1 1695.88 2210)">Marque sur <tspan font-size="110" x="542.758" y="0">diagonale</tspan><tspan font-size="110" x="1002.63" y="0">1 </tspan></text><path d="M0 0 203.846 0.000360892" stroke="#70AD47" stroke-width="6.875" stroke-miterlimit="8" stroke-dasharray="55 20.625" fill="none" fill-rule="evenodd" transform="matrix(-1 0 0 1 1652.35 2276.5)"/><text fill="#70AD47" font-family="Calibri,Calibri_MSFontService,sans-serif" font-weight="400" font-size="110" transform="matrix(1 0 0 1 1693.48 2329)">Marque sur diagonale<tspan font-size="110" x="1002.63" y="0">2 </tspan></text></g></svg>