<svg width="2077" height="2065" xmlns="http://www.w3.org/2000/svg" xmlns:xlink="http://www.w3.org/1999/xlink" overflow="hidden"><defs><clipPath id="clip0"><rect x="1122" y="171" width="2077" height="2065"/></clipPath></defs><g clip-path="url(#clip0)" transform="translate(-1122 -171)"><path d="M1215 1239 2203 250 3191 1239 2203 2228Z" stroke="#2F528F" stroke-width="10.3125" stroke-miterlimit="8" fill="none" fill-rule="evenodd"/><path d="M18.7424 13.616 972.872 952.257 968.051 957.158 13.921 18.517ZM9.96113 29.0876 0 0 29.2468 9.48366ZM976.835 941.689 986.796 970.777 957.55 961.293Z" fill="#4472C4" transform="matrix(-1 0 0 1 2137.3 199.5)"/><text font-family="Calibri,Calibri_MSFontService,sans-serif" font-weight="400" font-size="83" transform="matrix(0.717893 -0.696153 0.696153 0.717893 1411.35 833)">Largeur feuille</text><path d="M1215.5 1239.5 3191.49 1239.5" stroke="#4472C4" stroke-width="6.875" stroke-miterlimit="8" stroke-dasharray="55 20.625" fill="none" fill-rule="evenodd"/><path d="M1711.5 750.5 2701.5 750.5" stroke="#4472C4" stroke-width="6.875" stroke-miterlimit="8" stroke-dasharray="55 20.625" fill="none" fill-rule="evenodd"/><path d="M1468.5 994.5 2948.16 994.5" stroke="#4472C4" stroke-width="6.875" stroke-miterlimit="8" stroke-dasharray="55 20.625" fill="none" fill-rule="evenodd"/><path d="M1958.5 497.5 2448.69 497.5" stroke="#4472C4" stroke-width="6.875" stroke-miterlimit="8" stroke-dasharray="55 20.625" fill="none" fill-rule="evenodd"/><path d="M1468.5 1491.5 2948.16 1491.5" stroke="#4472C4" stroke-width="6.875" stroke-miterlimit="8" stroke-dasharray="55 20.625" fill="none" fill-rule="evenodd"/><path d="M1711.5 1731.5 2701.5 1731.5" stroke="#4472C4" stroke-width="6.875" stroke-miterlimit="8" stroke-dasharray="55 20.625" fill="none" fill-rule="evenodd"/><path d="M1955.5 1981.5 2445.69 1981.5" stroke="#4472C4" stroke-width="6.875" stroke-miterlimit="8" stroke-dasharray="55 20.625" fill="none" fill-rule="evenodd"/><path d="M2203.5 252.5 2203.5 2228.49" stroke="#ED7D31" stroke-width="6.875" stroke-miterlimit="8" stroke-dasharray="55 20.625" fill="none" fill-rule="evenodd"/><path d="M2692.5 747.5 2692.5 1737.5" stroke="#ED7D31" stroke-width="6.875" stroke-miterlimit="8" stroke-dasharray="55 20.625" fill="none" fill-rule="evenodd"/><path d="M2448.5 504.5 2448.5 1984.16" stroke="#ED7D31" stroke-width="6.875" stroke-miterlimit="8" stroke-dasharray="55 20.625" fill="none" fill-rule="evenodd"/><path d="M2945.5 994.5 2945.5 1484.69" stroke="#ED7D31" stroke-width="6.875" stroke-miterlimit="8" stroke-dasharray="55 20.625" fill="none" fill-rule="evenodd"/><path d="M1951.5 504.5 1951.5 1984.16" stroke="#ED7D31" stroke-width="6.875" stroke-miterlimit="8" stroke-dasharray="55 20.625" fill="none" fill-rule="evenodd"/><path d="M1711.5 747.5 1711.5 1737.5" stroke="#ED7D31" stroke-width="6.875" stroke-miterlimit="8" stroke-dasharray="55 20.625" fill="none" fill-rule="evenodd"/><path d="M1461.5 991.5 1461.5 1481.69" stroke="#ED7D31" stroke-width="6.875" stroke-miterlimit="8" stroke-dasharray="55 20.625" fill="none" fill-rule="evenodd"/></g></svg>