<svg width="2426" height="1660" xmlns="http://www.w3.org/2000/svg" xmlns:xlink="http://www.w3.org/1999/xlink" overflow="hidden"><defs><clipPath id="clip0"><rect x="825" y="245" width="2426" height="1660"/></clipPath></defs><g clip-path="url(#clip0)" transform="translate(-825 -245)"><path d="M884 1075 1543.21 250 2531.79 250 3191 1075 2531.79 1900 1543.21 1900Z" stroke="#2F528F" stroke-width="10.3125" stroke-miterlimit="8" fill="none" fill-rule="evenodd"/><path d="M11.8026-5.72917 2295.04-5.72881 2295.04 5.72953 11.8026 5.72917ZM60.5822 33.654 0.00500809-3.65677e-07 60.5823-33.654C63.3482-35.1907 66.8361-34.1941 68.3728-31.4282 69.9094-28.6622 68.9129-25.1743 66.1469-23.6376L14.5844 5.00819 14.5844-5.00819 66.1469 23.6377C68.9128 25.1743 69.9094 28.6622 68.3728 31.4282 66.8361 34.1941 63.3482 35.1907 60.5822 33.654ZM2246.22-33.6537 2306.79 0.000360655 2246.22 33.6544C2243.45 35.191 2239.96 34.1945 2238.43 31.4285 2236.89 28.6626 2237.89 25.1746 2240.65 23.638L2292.21-5.00783 2292.21 5.00855 2240.65-23.6373C2237.89-25.1739 2236.89-28.6619 2238.43-31.4278 2239.96-34.1938 2243.45-35.1903 2246.22-33.6537Z" fill="#70AD47" transform="matrix(-1 0 0 1 3191.3 1075.5)"/><text fill="#44546A" font-family="Calibri,Calibri_MSFontService,sans-serif" font-weight="400" font-size="110" transform="matrix(1 0 0 1 1676.89 1028)">Grande diagonale</text></g></svg>