<svg width="2928" height="2477" xmlns="http://www.w3.org/2000/svg" xmlns:xlink="http://www.w3.org/1999/xlink" overflow="hidden"><defs><clipPath id="clip0"><rect x="564" y="31" width="2928" height="2477"/></clipPath></defs><g clip-path="url(#clip0)" transform="translate(-564 -31)"><rect x="1211.5" y="247.5" width="1980" height="1980" stroke="#2F528F" stroke-width="6.875" stroke-miterlimit="8" fill="none"/><path d="M1871.5 247.5 1871.5 2227.5" stroke="#70AD47" stroke-width="6.875" stroke-miterlimit="8" stroke-dasharray="55 20.625" fill="none" fill-rule="evenodd"/><path d="M2535.5 248.5 2535.5 2228.5" stroke="#70AD47" stroke-width="6.875" stroke-miterlimit="8" stroke-dasharray="55 20.625" fill="none" fill-rule="evenodd"/><path d="M0 0 1980 0.000360892" stroke="#ED7D31" stroke-width="6.875" stroke-miterlimit="8" stroke-dasharray="55 20.625" fill="none" fill-rule="evenodd" transform="matrix(-1 0 0 1 3191.5 910.5)"/><path d="M0 0 1980 0.000360892" stroke="#ED7D31" stroke-width="6.875" stroke-miterlimit="8" stroke-dasharray="55 20.625" fill="none" fill-rule="evenodd" transform="matrix(-1 0 0 1 3190.5 1570.5)"/><path d="M1128.94 255.274 1128.94 2221.69 1122.06 2221.69 1122.06 255.274ZM1106.49 281.074 1125.5 248.484 1144.51 281.074C1145.47 282.714 1144.91 284.819 1143.27 285.776 1141.63 286.732 1139.53 286.178 1138.57 284.538L1122.53 257.038 1128.47 257.038 1112.43 284.538C1111.47 286.178 1109.37 286.732 1107.73 285.776 1106.09 284.819 1105.53 282.714 1106.49 281.074ZM1144.51 2195.93 1125.5 2228.52 1106.49 2195.93C1105.53 2194.29 1106.09 2192.18 1107.73 2191.22 1109.37 2190.27 1111.47 2190.82 1112.43 2192.46L1128.47 2219.96 1122.53 2219.96 1138.57 2192.46C1139.53 2190.82 1141.63 2190.27 1143.27 2191.22 1144.91 2192.18 1145.47 2194.29 1144.51 2195.93Z" fill="#44546A"/><path d="M6.77431-3.4375 1973.19-3.43714 1973.19 3.43786 6.77431 3.4375ZM32.5742 19.0109-0.0159314 2.99022e-07 32.5742-19.0109C34.2141-19.9675 36.3189-19.4136 37.2755-17.7737 38.2321-16.1339 37.6782-14.029 36.0383-13.0724L8.53831 2.96924 8.53831-2.96924 36.0383 13.0724C37.6782 14.029 38.2321 16.1339 37.2755 17.7737 36.3189 19.4136 34.2141 19.9675 32.5742 19.0109ZM1947.43-19.0106 1980.02 0.000360593 1947.43 19.0113C1945.79 19.9679 1943.68 19.4139 1942.72 17.7741 1941.77 16.1342 1942.32 14.0294 1943.96 13.0728L1971.46-2.96888 1971.46 2.9696 1943.96-13.0721C1942.32-14.0287 1941.77-16.1335 1942.72-17.7734 1943.68-19.4132 1945.79-19.9671 1947.43-19.0106Z" fill="#44546A" transform="matrix(-1 0 0 1 3190.5 2283.5)"/><text fill="#44546A" font-family="Calibri,Calibri_MSFontService,sans-serif" font-weight="400" font-size="110" transform="matrix(1 0 0 1 630.792 1273)">Longueur<tspan font-size="110" x="1407.57" y="1140">Largeur</tspan></text><path d="M6.8067-3.4375 654.264-3.43714 654.264 3.43786 6.8067 3.4375ZM32.5742 19.0109-0.0159307 1.84981e-07 32.5742-19.0109C34.2141-19.9675 36.3189-19.4136 37.2755-17.7737 38.2321-16.1338 37.6782-14.029 36.0383-13.0724L8.53831 2.96924 8.53831-2.96924 36.0383 13.0724C37.6782 14.029 38.2321 16.1339 37.2755 17.7737 36.3189 19.4136 34.214 19.9675 32.5742 19.0109ZM628.494-19.0106 661.084 0.000359766 628.494 19.0113C626.854 19.9678 624.749 19.4139 623.792 17.7741 622.836 16.1342 623.39 14.0294 625.03 13.0728L652.53-2.96888 652.53 2.9696 625.03-13.0721C623.39-14.0287 622.836-16.1335 623.792-17.7734 624.749-19.4132 626.854-19.9672 628.494-19.0106Z" fill="#ED7D31" transform="matrix(-1 0 0 1 1871.57 194.5)"/><path d="M6.8067-3.4375 654.264-3.43714 654.264 3.43786 6.8067 3.4375ZM32.5742 19.0109-0.0159307 1.84981e-07 32.5742-19.0109C34.2141-19.9675 36.3189-19.4136 37.2755-17.7737 38.2321-16.1338 37.6782-14.029 36.0383-13.0724L8.53831 2.96924 8.53831-2.96924 36.0383 13.0724C37.6782 14.029 38.2321 16.1339 37.2755 17.7737 36.3189 19.4136 34.214 19.9675 32.5742 19.0109ZM628.494-19.0106 661.084 0.000359766 628.494 19.0113C626.854 19.9678 624.749 19.4139 623.792 17.7741 622.836 16.1342 623.39 14.0294 625.03 13.0728L652.53-2.96888 652.53 2.9696 625.03-13.0721C623.39-14.0287 622.836-16.1335 623.792-17.7734 624.749-19.4132 626.854-19.9672 628.494-19.0106Z" fill="#ED7D31" transform="matrix(-1 0 0 1 2528.57 194.5)"/><path d="M6.8067-3.4375 654.264-3.43714 654.264 3.43786 6.8067 3.4375ZM32.5742 19.0109-0.0159307 1.84981e-07 32.5742-19.0109C34.2141-19.9675 36.3189-19.4136 37.2755-17.7737 38.2321-16.1338 37.6782-14.029 36.0383-13.0724L8.53831 2.96924 8.53831-2.96924 36.0383 13.0724C37.6782 14.029 38.2321 16.1339 37.2755 17.7737 36.3189 19.4136 34.214 19.9675 32.5742 19.0109ZM628.494-19.0106 661.084 0.000359766 628.494 19.0113C626.854 19.9678 624.749 19.4139 623.792 17.7741 622.836 16.1342 623.39 14.0294 625.03 13.0728L652.53-2.96888 652.53 2.9696 625.03-13.0721C623.39-14.0287 622.836-16.1335 623.792-17.7734 624.749-19.4132 626.854-19.9672 628.494-19.0106Z" fill="#ED7D31" transform="matrix(-1 0 0 1 3193.57 194.5)"/><text fill="#ED7D31" font-family="Calibri,Calibri_MSFontService,sans-serif" font-weight="400" font-size="110" transform="matrix(1 0 0 1 1470.94 168)">m1<tspan font-size="110" x="686.165" y="0">m1</tspan><tspan font-size="110" x="1331.82" y="0">m1</tspan></text><path d="M3246.94 254.307 3246.94 903.897 3240.06 903.897 3240.06 254.307ZM3224.49 280.074 3243.5 247.484 3262.51 280.074C3263.47 281.714 3262.91 283.819 3261.27 284.775 3259.63 285.732 3257.53 285.178 3256.57 283.538L3240.53 256.038 3246.47 256.038 3230.43 283.538C3229.47 285.178 3227.37 285.732 3225.73 284.776 3224.09 283.819 3223.53 281.714 3224.49 280.074ZM3262.51 878.129 3243.5 910.72 3224.49 878.129C3223.53 876.49 3224.09 874.385 3225.73 873.428 3227.37 872.472 3229.47 873.025 3230.43 874.665L3246.47 902.165 3240.53 902.165 3256.57 874.665C3257.53 873.025 3259.63 872.472 3261.27 873.428 3262.91 874.385 3263.47 876.49 3262.51 878.129Z" fill="#70AD47"/><path d="M3246.94 917.307 3246.94 1566.9 3240.06 1566.9 3240.06 917.307ZM3224.49 943.074 3243.5 910.484 3262.51 943.074C3263.47 944.714 3262.91 946.819 3261.27 947.776 3259.63 948.732 3257.53 948.178 3256.57 946.538L3240.53 919.038 3246.47 919.038 3230.43 946.538C3229.47 948.178 3227.37 948.732 3225.73 947.776 3224.09 946.819 3223.53 944.714 3224.49 943.074ZM3262.51 1541.13 3243.5 1573.72 3224.49 1541.13C3223.53 1539.49 3224.09 1537.38 3225.73 1536.43 3227.37 1535.47 3229.47 1536.03 3230.43 1537.67L3246.47 1565.17 3240.53 1565.17 3256.57 1537.67C3257.53 1536.03 3259.63 1535.47 3261.27 1536.43 3262.91 1537.38 3263.47 1539.49 3262.51 1541.13Z" fill="#70AD47"/><path d="M3246.94 1577.31 3246.94 2226.9 3240.06 2226.9 3240.06 1577.31ZM3224.49 1603.07 3243.5 1570.48 3262.51 1603.07C3263.47 1604.71 3262.91 1606.82 3261.27 1607.78 3259.63 1608.73 3257.53 1608.18 3256.57 1606.54L3240.53 1579.04 3246.47 1579.04 3230.43 1606.54C3229.47 1608.18 3227.37 1608.73 3225.73 1607.78 3224.09 1606.82 3223.53 1604.71 3224.49 1603.07ZM3262.51 2201.13 3243.5 2233.72 3224.49 2201.13C3223.53 2199.49 3224.09 2197.38 3225.73 2196.43 3227.37 2195.47 3229.47 2196.03 3230.43 2197.67L3246.47 2225.17 3240.53 2225.17 3256.57 2197.67C3257.53 2196.03 3259.63 2195.47 3261.27 2196.43 3262.91 2197.38 3263.47 2199.49 3262.51 2201.13Z" fill="#70AD47"/><text fill="#70AD47" font-family="Calibri,Calibri_MSFontService,sans-serif" font-weight="400" font-size="110" transform="matrix(1 0 0 1 3282.34 631)">m2<tspan font-size="110" x="0" y="659">m2</tspan><tspan font-size="110" x="0" y="1324">m3</tspan></text></g></svg>