<svg width="1429" height="298" xmlns="http://www.w3.org/2000/svg" xmlns:xlink="http://www.w3.org/1999/xlink" overflow="hidden"><defs><clipPath id="clip0"><rect x="2675" y="1305" width="1429" height="298"/></clipPath></defs><g clip-path="url(#clip0)" transform="translate(-2675 -1305)"><path d="M2717.31 1404.06 3034.76 1404.06 3034.76 1410.94 2717.31 1410.94ZM2743.07 1426.51 2710.48 1407.5 2743.07 1388.49C2744.71 1387.53 2746.82 1388.09 2747.78 1389.73 2748.73 1391.37 2748.18 1393.47 2746.54 1394.43L2719.04 1410.47 2719.04 1404.53 2746.54 1420.57C2748.18 1421.53 2748.73 1423.63 2747.78 1425.27 2746.82 1426.91 2744.71 1427.47 2743.07 1426.51ZM3008.99 1388.49 3041.58 1407.5 3008.99 1426.51C3007.35 1427.47 3005.25 1426.91 3004.29 1425.27 3003.34 1423.63 3003.89 1421.53 3005.53 1420.57L3033.03 1404.53 3033.03 1410.47 3005.53 1394.43C3003.89 1393.47 3003.34 1391.37 3004.29 1389.73 3005.25 1388.09 3007.35 1387.53 3008.99 1388.49Z" fill="#ED7D31"/><path d="M2717.3 1523.06 3143.16 1523.06 3143.16 1529.94 2717.3 1529.94ZM2743.07 1545.51 2710.48 1526.5 2743.07 1507.49C2744.71 1506.53 2746.82 1507.09 2747.78 1508.73 2748.73 1510.37 2748.18 1512.47 2746.54 1513.43L2719.04 1529.47 2719.04 1523.53 2746.54 1539.57C2748.18 1540.53 2748.73 1542.63 2747.78 1544.27 2746.82 1545.91 2744.71 1546.47 2743.07 1545.51ZM3117.39 1507.49 3149.98 1526.5 3117.39 1545.51C3115.75 1546.47 3113.65 1545.91 3112.69 1544.27 3111.73 1542.63 3112.29 1540.53 3113.93 1539.57L3141.43 1523.53 3141.43 1529.47 3113.93 1513.43C3112.29 1512.47 3111.73 1510.37 3112.69 1508.73 3113.65 1507.09 3115.75 1506.53 3117.39 1507.49Z" fill="#4472C4"/><text font-family="Calibri,Calibri_MSFontService,sans-serif" font-weight="400" font-size="83" transform="matrix(1 0 0 1 3182.42 1407)">Largeur/hauteur boîte<tspan font-size="83" x="0.000488281" y="124">Longueur  boîte</tspan></text></g></svg>