<svg width="2174" height="1658" xmlns="http://www.w3.org/2000/svg" xmlns:xlink="http://www.w3.org/1999/xlink" overflow="hidden"><defs><clipPath id="clip0"><rect x="392" y="218" width="2174" height="1658"/></clipPath></defs><g clip-path="url(#clip0)" transform="translate(-392 -218)"><rect x="1214.5" y="247.5" width="1319" height="1320" stroke="#2F528F" stroke-width="6.875" stroke-miterlimit="8" fill="none"/><path d="M1544.5 247.5 1544.5 1567.5" stroke="#4472C4" stroke-width="6.875" stroke-miterlimit="8" fill="none" fill-rule="evenodd"/><path d="M2205.5 247.5 2205.5 1567.5" stroke="#4472C4" stroke-width="6.875" stroke-miterlimit="8" fill="none" fill-rule="evenodd"/><path d="M881.5 577.5 2533.64 577.5" stroke="#4472C4" stroke-width="6.875" stroke-miterlimit="8" fill="none" fill-rule="evenodd"/><path d="M884.5 1238.5 2533.43 1238.5" stroke="#4472C4" stroke-width="6.875" stroke-miterlimit="8" fill="none" fill-rule="evenodd"/><path d="M0 0 328.398 329.999" stroke="#ED7D31" stroke-width="6.875" stroke-miterlimit="8" stroke-dasharray="55 20.625" fill="none" fill-rule="evenodd" transform="matrix(1 0 0 -1 2205.5 577.499)"/><path d="M0 0 328.398 329.999" stroke="#ED7D31" stroke-width="6.875" stroke-miterlimit="8" stroke-dasharray="55 20.625" fill="none" fill-rule="evenodd" transform="matrix(1 0 0 -1 1216.5 1567.5)"/><path d="M2533.9 1567.1 2205.5 1237.5" stroke="#ED7D31" stroke-width="6.875" stroke-miterlimit="8" stroke-dasharray="55 20.625" fill="none" fill-rule="evenodd"/><path d="M1544.9 576.099 1216.5 246.5" stroke="#ED7D31" stroke-width="6.875" stroke-miterlimit="8" stroke-dasharray="55 20.625" fill="none" fill-rule="evenodd"/><path d="M804.938 599.417 804.938 1214.78 798.063 1214.78 798.063 599.417ZM787.75 604 801.5 576.5 815.25 604ZM815.25 1210.2 801.5 1237.7 787.75 1210.2Z" fill="#4472C4"/><path d="M22.9168-3.43749 637.617-3.43715 637.617 3.43785 22.9168 3.43751ZM27.5 13.75 0 0 27.5-13.75ZM633.033-13.7497 660.533 0.000360892 633.033 13.7503Z" fill="#70AD47" transform="matrix(-1 0 0 1 2205.03 1656.5)"/><path d="M22.9166-3.43747 309.219-3.43716 309.219 3.43784 22.9166 3.43753ZM27.5 13.75 0 0 27.5-13.75ZM304.636-13.7497 332.136 0.000360892 304.636 13.7503Z" fill="#FF0000" transform="matrix(-1 0 0 1 1546.64 1656.5)"/><path d="M22.9166-3.43747 309.219-3.43716 309.219 3.43784 22.9166 3.43753ZM27.5 13.75 0 0 27.5-13.75ZM304.636-13.7497 332.136 0.000360892 304.636 13.7503Z" fill="#FF0000" transform="matrix(-1 0 0 1 2537.64 1656.5)"/><path d="M3.43753 22.9166 3.43784 306.682-3.43716 306.682-3.43747 22.9166ZM-13.75 27.5 0 0 13.75 27.5ZM13.7503 302.099 0.000360892 329.599-13.7497 302.099Z" fill="#FF0000" transform="matrix(1 0 0 -1 801.5 1567.1)"/><path d="M3.43753 22.9166 3.43784 306.682-3.43716 306.682-3.43747 22.9166ZM-13.75 27.5 0 0 13.75 27.5ZM13.7503 302.099 0.000360892 329.599-13.7497 302.099Z" fill="#FF0000" transform="matrix(1 0 0 -1 801.5 576.099)"/><text fill="#70AD47" font-family="Calibri,Calibri_MSFontService,sans-serif" font-weight="400" font-size="83" transform="matrix(1 0 0 1 1760.43 1804)">Largeur<tspan fill="#4472C4" font-size="83" x="-1318.13" y="-872">Longueur</tspan><tspan fill="#FF0000" font-size="83" x="-1294.5" y="-1366">Hauteur</tspan></text><rect x="884.5" y="247.5" width="332" height="1320" stroke="#2F528F" stroke-width="6.875" stroke-miterlimit="8" fill="none"/><path d="M0 0 328.398 329.999" stroke="#ED7D31" stroke-width="6.875" stroke-miterlimit="8" stroke-dasharray="55 20.625" fill="none" fill-rule="evenodd" transform="matrix(1 0 0 -1 886.5 576.499)"/><path d="M1217.9 1573.1 889.5 1243.5" stroke="#ED7D31" stroke-width="6.875" stroke-miterlimit="8" stroke-dasharray="55 20.625" fill="none" fill-rule="evenodd"/><path d="M22.9166-3.43747 309.219-3.43716 309.219 3.43784 22.9166 3.43753ZM27.5 13.75 0 0 27.5-13.75ZM304.636-13.7497 332.136 0.000360892 304.636 13.7503Z" fill="#FF0000" transform="matrix(-1 0 0 1 1213.64 1657.5)"/></g></svg>