<?xml version="1.0" encoding="UTF-8" standalone="no"?>
<svg
   xmlns:dc="http://purl.org/dc/elements/1.1/"
   xmlns:cc="http://creativecommons.org/ns#"
   xmlns:rdf="http://www.w3.org/1999/02/22-rdf-syntax-ns#"
   xmlns:svg="http://www.w3.org/2000/svg"
   xmlns="http://www.w3.org/2000/svg"
   xmlns:sodipodi="http://sodipodi.sourceforge.net/DTD/sodipodi-0.dtd"
   xmlns:inkscape="http://www.inkscape.org/namespaces/inkscape"
   width="6183"
   height="3845"
   overflow="hidden"
   version="1.1"
   id="svg4982"
   sodipodi:docname="kata-divisor1.svg"
   inkscape:version="0.92.3 (2405546, 2018-03-11)">
  <metadata
     id="metadata4986">
    <rdf:RDF>
      <cc:Work
         rdf:about="">
        <dc:format>image/svg+xml</dc:format>
        <dc:type
           rdf:resource="http://purl.org/dc/dcmitype/StillImage" />
      </cc:Work>
    </rdf:RDF>
  </metadata>
  <sodipodi:namedview
     pagecolor="#ffffff"
     bordercolor="#666666"
     borderopacity="1"
     objecttolerance="10"
     gridtolerance="10"
     guidetolerance="10"
     inkscape:pageopacity="0"
     inkscape:pageshadow="2"
     inkscape:window-width="1920"
     inkscape:window-height="1001"
     id="namedview4984"
     showgrid="false"
     inkscape:zoom="0.33759974"
     inkscape:cx="3284.4839"
     inkscape:cy="3520.1377"
     inkscape:window-x="-9"
     inkscape:window-y="-9"
     inkscape:window-maximized="1"
     inkscape:current-layer="g4980" />
  <defs
     id="defs4870">
    <clipPath
       id="clip0">
      <rect
         x="345"
         y="443"
         width="6183"
         height="3845"
         id="rect4867" />
    </clipPath>
  </defs>
  <g
     clip-path="url(#clip0)"
     transform="translate(-345,-443)"
     id="g4980">
    <rect
       x="845"
       y="848"
       width="4711"
       height="2694"
       stroke-miterlimit="8"
       id="rect4872"
       style="fill:none;stroke:#2f528f;stroke-width:10.3125;stroke-miterlimit:8" />
    <path
       d="M 1527,848 V 3542.25"
       stroke-miterlimit="8"
       id="path4874"
       inkscape:connector-curvature="0"
       style="fill:none;fill-rule:evenodd;stroke:#70ad47;stroke-width:10.3125;stroke-miterlimit:8;stroke-dasharray:82.5, 30.9375" />
    <path
       d="M 1855,848 V 3542.25"
       stroke-miterlimit="8"
       id="path4876"
       inkscape:connector-curvature="0"
       style="fill:none;fill-rule:evenodd;stroke:#70ad47;stroke-width:10.3125;stroke-miterlimit:8;stroke-dasharray:82.5, 30.9375" />
    <path
       d="M 2196,848 V 3542.25"
       stroke-miterlimit="8"
       id="path4878"
       inkscape:connector-curvature="0"
       style="fill:none;fill-rule:evenodd;stroke:#70ad47;stroke-width:10.3125;stroke-miterlimit:8;stroke-dasharray:82.5, 30.9375" />
    <path
       d="M 3546,847 V 3541.25"
       stroke-miterlimit="8"
       id="path4880"
       inkscape:connector-curvature="0"
       style="fill:none;fill-rule:evenodd;stroke:#70ad47;stroke-width:10.3125;stroke-miterlimit:8;stroke-dasharray:82.5, 30.9375" />
    <path
       d="M 4215,847 V 3541.25"
       stroke-miterlimit="8"
       id="path4882"
       inkscape:connector-curvature="0"
       style="fill:none;fill-rule:evenodd;stroke:#70ad47;stroke-width:10.3125;stroke-miterlimit:8;stroke-dasharray:82.5, 30.9375" />
    <path
       d="M 4545,847 V 3541.25"
       stroke-miterlimit="8"
       id="path4884"
       inkscape:connector-curvature="0"
       style="fill:none;fill-rule:evenodd;stroke:#70ad47;stroke-width:10.3125;stroke-miterlimit:8;stroke-dasharray:82.5, 30.9375" />
    <path
       d="M 0,0 4710.41,3.60892e-4"
       stroke-miterlimit="8"
       transform="matrix(-1,0,0,1,5555.41,1525)"
       id="path4886"
       inkscape:connector-curvature="0"
       style="fill:none;fill-rule:evenodd;stroke:#ed7d31;stroke-width:10.3125;stroke-miterlimit:8;stroke-dasharray:82.5, 30.9375" />
    <path
       d="M 0,0 4710.41,3.60892e-4"
       stroke-miterlimit="8"
       transform="matrix(-1,0,0,1,5556.41,2864)"
       id="path4888"
       inkscape:connector-curvature="0"
       style="fill:none;fill-rule:evenodd;stroke:#ed7d31;stroke-width:10.3125;stroke-miterlimit:8;stroke-dasharray:82.5, 30.9375" />
    <path
       d="M 10.6597,-5.15625 4699.75,-5.15589 V 5.15661 L 10.6597,5.15625 Z M 54.524,30.2886 0.00450552,8.98371e-8 54.524,-30.2886 c 2.4894,-1.383 5.6285,-0.4861 7.0115,2.0033 1.383,2.4893 0.4861,5.6285 -2.0033,7.0114 L 13.126,4.50737 V -4.50737 L 59.5322,21.2739 c 2.4894,1.383 3.3863,4.5221 2.0033,7.0115 -1.383,2.4893 -4.5221,3.3862 -7.0115,2.0032 z M 4655.89,-30.2883 4710.41,3.60984e-4 4655.89,30.289 c -2.49,1.383 -5.63,0.4861 -7.01,-2.0033 -1.39,-2.4894 -0.49,-5.6285 2,-7.0115 l 46.41,-25.78122 v 9.01476 l -46.41,-25.78124 c -2.49,-1.383 -3.39,-4.5221 -2,-7.0115 1.38,-2.4893 4.52,-3.3862 7.01,-2.0033 z"
       transform="matrix(-1,0,0,1,5555.41,3652)"
       id="path4890"
       inkscape:connector-curvature="0"
       style="fill:#4472c4" />
    <path
       d="M 5.15625,10.6086 5.15661,2683.64 H -5.15589 L -5.15625,10.6086 Z M -30.2886,54.524 -2.51121e-8,0.00450552 30.2886,54.524 c 1.383,2.4894 0.4861,5.6285 -2.0032,7.0115 -2.4894,1.383 -5.6285,0.4861 -7.0115,-2.0033 L -4.50737,13.126 H 4.50738 L -21.2739,59.5322 c -1.3829,2.4894 -4.5221,3.3863 -7.0114,2.0033 -2.4894,-1.383 -3.3863,-4.5221 -2.0033,-7.0115 z M 30.289,2639.72 3.69243e-4,2694.24 -30.2883,2639.72 c -1.3829,-2.49 -0.486,-5.63 2.0033,-7.01 2.4894,-1.38 5.6285,-0.49 7.0115,2 l 25.78123,46.41 h -9.01475 l 25.78122,-46.41 c 1.383,-2.49 4.5221,-3.38 7.0115,-2 2.4893,1.38 3.3862,4.52 2.0033,7.01 z"
       transform="matrix(1,0,0,-1,5654,3541.25)"
       id="path4892"
       inkscape:connector-curvature="0"
       style="fill:#4472c4" />
    <path
       d="M 5.15626,10.6226 5.15661,666.659 H -5.15589 L -5.15624,10.6226 Z M -30.2886,54.524 -1.31668e-7,0.00450552 30.2887,54.524 c 1.3829,2.4894 0.486,5.6285 -2.0033,7.0115 -2.4894,1.383 -5.6285,0.4861 -7.0115,-2.0033 L -4.50737,13.126 H 4.50738 L -21.2738,59.5322 c -1.383,2.4894 -4.5222,3.3863 -7.0115,2.0033 -2.4894,-1.383 -3.3863,-4.5221 -2.0033,-7.0115 z M 30.289,622.757 3.59938e-4,677.276 -30.2883,622.757 c -1.383,-2.49 -0.4861,-5.629 2.0033,-7.012 2.4893,-1.383 5.6285,-0.486 7.0115,2.003 L 4.50773,664.155 H -4.50702 L 21.2742,617.748 c 1.383,-2.489 4.5221,-3.386 7.0115,-2.003 2.4893,1.383 3.3862,4.522 2.0033,7.012 z"
       transform="matrix(1,0,0,-1,696,3541.28)"
       id="path4894"
       inkscape:connector-curvature="0"
       style="fill:#70ad47" />
    <path
       d="M 5.15626,10.6226 5.15661,666.659 H -5.15589 L -5.15624,10.6226 Z M -30.2886,54.524 -1.31668e-7,0.00450552 30.2887,54.524 c 1.3829,2.4894 0.486,5.6285 -2.0033,7.0115 -2.4894,1.383 -5.6285,0.4861 -7.0115,-2.0033 L -4.50737,13.126 H 4.50738 L -21.2738,59.5322 c -1.383,2.4894 -4.5222,3.3863 -7.0115,2.0033 -2.4894,-1.383 -3.3863,-4.5221 -2.0033,-7.0115 z M 30.289,622.757 3.59938e-4,677.276 -30.2883,622.757 c -1.383,-2.49 -0.4861,-5.629 2.0033,-7.012 2.4893,-1.383 5.6285,-0.486 7.0115,2.003 L 4.50773,664.155 H -4.50702 L 21.2742,617.748 c 1.383,-2.489 4.5221,-3.386 7.0115,-2.003 2.4893,1.383 3.3862,4.522 2.0033,7.012 z"
       transform="matrix(1,0,0,-1,696,1524.28)"
       id="path4896"
       inkscape:connector-curvature="0"
       style="fill:#70ad47" />
    <path
       d="M 5.15625,10.6148 5.15661,1329.18 H -5.15589 L -5.15625,10.6148 Z M -30.2886,54.524 3.27301e-7,0.00450693 30.2886,54.524 c 1.383,2.4894 0.4861,5.6285 -2.0032,7.0115 -2.4894,1.383 -5.6285,0.4861 -7.0115,-2.0033 L -4.50737,13.126 H 4.50738 L -21.2739,59.5322 c -1.3829,2.4894 -4.5221,3.3863 -7.0114,2.0033 -2.4894,-1.383 -3.3863,-4.5221 -2.0033,-7.0115 z M 30.289,1285.28 3.59841e-4,1339.8 -30.2883,1285.28 c -1.383,-2.49 -0.4861,-5.63 2.0033,-7.02 2.4894,-1.38 5.6285,-0.48 7.0115,2.01 l 25.78123,46.4 h -9.01475 l 25.78122,-46.4 c 1.383,-2.49 4.5221,-3.39 7.0115,-2.01 2.4893,1.39 3.3862,4.53 2.0033,7.02 z"
       transform="matrix(1,0,0,-1,696,2864.8)"
       id="path4898"
       inkscape:connector-curvature="0"
       style="fill:#70ad47" />
    <path
       d="M 10.6219,-5.15624 323.9,-5.1559 V 5.1566 L 10.6218,5.15626 Z M 54.524,30.2887 0.00450693,-1.23942e-7 54.5241,-30.2886 c 2.4893,-1.3829 5.6285,-0.486 7.0114,2.0033 1.383,2.4894 0.4861,5.6285 -2.0033,7.0115 L 13.126,4.50739 V -4.50736 L 59.5322,21.2739 c 2.4893,1.383 3.3862,4.5222 2.0033,7.0115 -1.383,2.4894 -4.5222,3.3863 -7.0115,2.0033 z M 279.997,-30.2883 334.516,3.60292e-4 279.997,30.2889 c -2.49,1.383 -5.629,0.4861 -7.012,-2.0033 -1.383,-2.4893 -0.486,-5.6285 2.004,-7.0114 L 321.395,-4.50703 V 4.50772 L 274.989,-21.2736 c -2.49,-1.383 -3.387,-4.5221 -2.004,-7.0115 1.383,-2.4893 4.523,-3.3862 7.012,-2.0032 z"
       transform="matrix(1,0,0,-1,1525,738)"
       id="path4900"
       inkscape:connector-curvature="0"
       style="fill:#ed7d31" />
    <path
       d="M 10.6712,-5.05823 664.825,0.963994 664.73,11.2761 10.5763,5.25384 Z M 54.2429,30.7893 0.00450693,4.12348e-5 54.8005,-29.7854 c 2.502,-1.36 5.6328,-0.4342 6.9928,2.0677 1.36,2.502 0.4342,5.6328 -2.0678,6.9928 L 13.0839,4.62802 13.1669,-4.38635 59.3339,21.821 c 2.4765,1.4058 3.3444,4.5531 1.9386,7.0296 -1.4058,2.4765 -4.5531,3.3445 -7.0296,1.9387 z M 621.157,-24.5715 675.396,6.21777 620.599,36.0032 c -2.502,1.36 -5.632,0.4343 -6.992,-2.0677 -1.36,-2.502 -0.435,-5.6328 2.067,-6.9928 l 46.642,-25.3529 -0.083,9.0144 -46.167,-26.2074 c -2.476,-1.4058 -3.344,-4.5531 -1.938,-7.0296 1.405,-2.4765 4.553,-3.3445 7.029,-1.9387 z"
       transform="matrix(1,0,0,-1,853,743.218)"
       id="path4902"
       inkscape:connector-curvature="0"
       style="fill:#ed7d31" />
    <text
       font-weight="400"
       font-size="183"
       transform="translate(2874.25,3902)"
       id="text4918"
       style="font-weight:400;font-size:183px;font-family:Calibri, Calibri_MSFontService, sans-serif;fill:#44546a">Longueur<tspan
   font-size="183"
   x="2812.75"
   y="-1646"
   id="tspan4904"
   style="font-size:183px">Largeur</tspan>
<tspan
   font-size="183"
   x="-1251.73"
   y="-3231"
   id="tspan4906"
   style="font-size:183px;fill:#ed7d31">l2</tspan>
<tspan
   font-size="183"
   x="-1755.27"
   y="-3226"
   id="tspan4908"
   style="font-size:183px;fill:#ed7d31">l1</tspan>
<tspan
   font-size="183"
   x="-2419.1299"
   y="-2655"
   id="tspan4910"
   style="font-size:183px;fill:#70ad47">w1</tspan>
<tspan
   font-size="183"
   x="-2419.1299"
   y="-1647"
   id="tspan4912"
   style="font-size:183px;fill:#70ad47">w2</tspan>
<tspan
   font-size="183"
   x="-2417.9299"
   y="-638"
   id="tspan4914"
   style="font-size:183px;fill:#70ad47">w</tspan>
<tspan
   font-size="183"
   x="-2286.73"
   y="-638"
   id="tspan4916"
   style="font-size:183px;fill:#70ad47">3</tspan>
</text>
    <path
       d="M 2870,848 V 3542.25"
       stroke-miterlimit="8"
       id="path4920"
       inkscape:connector-curvature="0"
       style="fill:none;fill-rule:evenodd;stroke:#70ad47;stroke-width:10.3125;stroke-miterlimit:8;stroke-dasharray:82.5, 30.9375" />
    <path
       d="M 3201,847 V 3541.25"
       stroke-miterlimit="8"
       id="path4922"
       inkscape:connector-curvature="0"
       style="fill:none;fill-rule:evenodd;stroke:#70ad47;stroke-width:10.3125;stroke-miterlimit:8;stroke-dasharray:82.5, 30.9375" />
    <path
       d="M 4885,848 V 3542.25"
       stroke-miterlimit="8"
       id="path4924"
       inkscape:connector-curvature="0"
       style="fill:none;fill-rule:evenodd;stroke:#70ad47;stroke-width:10.3125;stroke-miterlimit:8;stroke-dasharray:82.5, 30.9375" />
    <path
       d="M 10.6219,-5.15624 323.9,-5.1559 V 5.1566 L 10.6218,5.15626 Z M 54.524,30.2887 0.00450693,-1.23942e-7 54.5241,-30.2886 c 2.4893,-1.3829 5.6285,-0.486 7.0114,2.0033 1.383,2.4894 0.4861,5.6285 -2.0033,7.0115 L 13.126,4.50739 V -4.50736 L 59.5322,21.2739 c 2.4893,1.383 3.3862,4.5222 2.0033,7.0115 -1.383,2.4894 -4.5222,3.3863 -7.0115,2.0033 z M 279.997,-30.2883 334.516,3.60292e-4 279.997,30.2889 c -2.49,1.383 -5.629,0.4861 -7.012,-2.0033 -1.383,-2.4893 -0.486,-5.6285 2.004,-7.0114 L 321.395,-4.50703 V 4.50772 L 274.989,-21.2736 c -2.49,-1.383 -3.387,-4.5221 -2.004,-7.0115 1.383,-2.4893 4.523,-3.3862 7.012,-2.0032 z"
       transform="matrix(1,0,0,-1,1858,738)"
       id="path4926"
       inkscape:connector-curvature="0"
       style="fill:#ed7d31" />
    <text
       font-weight="400"
       font-size="183"
       transform="translate(1956.32,671)"
       id="text4928"
       style="font-weight:400;font-size:183px;font-family:Calibri, Calibri_MSFontService, sans-serif;fill:#ed7d31">l3</text>
    <path
       d="M 10.6219,-5.15624 323.9,-5.1559 V 5.1566 L 10.6218,5.15626 Z M 54.524,30.2887 0.00450693,-1.23942e-7 54.5241,-30.2886 c 2.4893,-1.3829 5.6285,-0.486 7.0114,2.0033 1.383,2.4894 0.4861,5.6285 -2.0033,7.0115 L 13.126,4.50739 V -4.50736 L 59.5322,21.2739 c 2.4893,1.383 3.3862,4.5222 2.0033,7.0115 -1.383,2.4894 -4.5222,3.3863 -7.0115,2.0033 z M 279.997,-30.2883 334.516,3.60292e-4 279.997,30.2889 c -2.49,1.383 -5.629,0.4861 -7.012,-2.0033 -1.383,-2.4893 -0.486,-5.6285 2.004,-7.0114 L 321.395,-4.50703 V 4.50772 L 274.989,-21.2736 c -2.49,-1.383 -3.387,-4.5221 -2.004,-7.0115 1.383,-2.4893 4.523,-3.3862 7.012,-2.0032 z"
       transform="matrix(1,0,0,-1,2874,737)"
       id="path4930"
       inkscape:connector-curvature="0"
       style="fill:#ed7d31" />
    <text
       font-weight="400"
       font-size="183"
       transform="translate(2972.41,670)"
       id="text4932"
       style="font-weight:400;font-size:183px;font-family:Calibri, Calibri_MSFontService, sans-serif;fill:#ed7d31">l5</text>
    <path
       d="M 10.6219,-5.15624 323.9,-5.1559 V 5.1566 L 10.6218,5.15626 Z M 54.524,30.2887 0.00450693,-1.23942e-7 54.5241,-30.2886 c 2.4893,-1.3829 5.6285,-0.486 7.0114,2.0033 1.383,2.4894 0.4861,5.6285 -2.0033,7.0115 L 13.126,4.50739 V -4.50736 L 59.5322,21.2739 c 2.4893,1.383 3.3862,4.5222 2.0033,7.0115 -1.383,2.4894 -4.5222,3.3863 -7.0115,2.0033 z M 279.997,-30.2883 334.516,3.60292e-4 279.997,30.2889 c -2.49,1.383 -5.629,0.4861 -7.012,-2.0033 -1.383,-2.4893 -0.486,-5.6285 2.004,-7.0114 L 321.395,-4.50703 V 4.50772 L 274.989,-21.2736 c -2.49,-1.383 -3.387,-4.5221 -2.004,-7.0115 1.383,-2.4893 4.523,-3.3862 7.012,-2.0032 z"
       transform="matrix(1,0,0,-1,3208,737)"
       id="path4934"
       inkscape:connector-curvature="0"
       style="fill:#ed7d31" />
    <text
       font-weight="400"
       font-size="183"
       transform="translate(3306.21,670)"
       id="text4936"
       style="font-weight:400;font-size:183px;font-family:Calibri, Calibri_MSFontService, sans-serif;fill:#ed7d31">l6</text>
    <path
       d="M 10.6219,-5.15624 323.9,-5.1559 V 5.1566 L 10.6218,5.15626 Z M 54.524,30.2887 0.00450693,-1.23942e-7 54.5241,-30.2886 c 2.4893,-1.3829 5.6285,-0.486 7.0114,2.0033 1.383,2.4894 0.4861,5.6285 -2.0033,7.0115 L 13.126,4.50739 V -4.50736 L 59.5322,21.2739 c 2.4893,1.383 3.3862,4.5222 2.0033,7.0115 -1.383,2.4894 -4.5222,3.3863 -7.0115,2.0033 z M 279.997,-30.2883 334.516,3.60292e-4 279.997,30.2889 c -2.49,1.383 -5.629,0.4861 -7.012,-2.0033 -1.383,-2.4893 -0.486,-5.6285 2.004,-7.0114 L 321.395,-4.50703 V 4.50772 L 274.989,-21.2736 c -2.49,-1.383 -3.387,-4.5221 -2.004,-7.0115 1.383,-2.4893 4.523,-3.3862 7.012,-2.0032 z"
       transform="matrix(1,0,0,-1,4228,743)"
       id="path4938"
       inkscape:connector-curvature="0"
       style="fill:#ed7d31" />
    <text
       font-weight="400"
       font-size="183"
       transform="translate(4325.65,676)"
       id="text4942"
       style="font-weight:400;font-size:183px;font-family:Calibri, Calibri_MSFontService, sans-serif;fill:#ed7d31">l<tspan
   font-size="183"
   x="41.8228"
   y="0"
   id="tspan4940"
   style="font-size:183px">8</tspan>
</text>
    <path
       d="M 10.6219,-5.15624 323.9,-5.1559 V 5.1566 L 10.6218,5.15626 Z M 54.524,30.2887 0.00450693,-1.23942e-7 54.5241,-30.2886 c 2.4893,-1.3829 5.6285,-0.486 7.0114,2.0033 1.383,2.4894 0.4861,5.6285 -2.0033,7.0115 L 13.126,4.50739 V -4.50736 L 59.5322,21.2739 c 2.4893,1.383 3.3862,4.5222 2.0033,7.0115 -1.383,2.4894 -4.5222,3.3863 -7.0115,2.0033 z M 279.997,-30.2883 334.516,3.60292e-4 279.997,30.2889 c -2.49,1.383 -5.629,0.4861 -7.012,-2.0033 -1.383,-2.4893 -0.486,-5.6285 2.004,-7.0114 L 321.395,-4.50703 V 4.50772 L 274.989,-21.2736 c -2.49,-1.383 -3.387,-4.5221 -2.004,-7.0115 1.383,-2.4893 4.523,-3.3862 7.012,-2.0032 z"
       transform="matrix(1,0,0,-1,4562,743)"
       id="path4944"
       inkscape:connector-curvature="0"
       style="fill:#ed7d31" />
    <text
       font-weight="400"
       font-size="183"
       transform="translate(4659.45,676)"
       id="text4948"
       style="font-weight:400;font-size:183px;font-family:Calibri, Calibri_MSFontService, sans-serif;fill:#ed7d31">l<tspan
   font-size="183"
   x="41.8228"
   y="0"
   id="tspan4946"
   style="font-size:183px">9</tspan>
</text>
    <path
       d="m 2192.9051,748.27623 668.4985,-6.02222 -0.097,-10.31211 -668.4984,6.02226 z m 44.5272,-35.84753 -55.4278,30.78926 55.9976,29.78544 c 2.5569,1.36 5.7563,0.4342 7.1461,-2.0677 1.3899,-2.502 0.4438,-5.6328 -2.1131,-6.9928 l -47.6644,-25.35292 0.085,9.01437 47.1794,-26.20735 c 2.5308,-1.4058 3.4178,-4.5531 1.9811,-7.0296 -1.4366,-2.4765 -4.6529,-3.3445 -7.1837,-1.9387 z m 579.3457,55.3608 55.4284,-30.78927 -55.9986,-29.78543 c -2.5569,-1.36 -5.7555,-0.4343 -7.1453,2.0677 -1.3898,2.502 -0.4446,5.6328 2.1123,6.9928 l 47.6648,25.3529 -0.085,-9.0144 -47.1794,26.2074 c -2.5303,1.4058 -3.4173,4.5531 -1.9805,7.0296 1.4358,2.4765 4.6529,3.3445 7.1831,1.9387 z"
       id="path4950"
       inkscape:connector-curvature="0"
       style="fill:#ed7d31;stroke-width:1.01090491" />
    <text
       font-weight="400"
       font-size="183"
       transform="translate(2448.48,676)"
       id="text4952"
       style="font-weight:400;font-size:183px;font-family:Calibri, Calibri_MSFontService, sans-serif;fill:#ed7d31">l4</text>
    <path
       d="M 10.6712,-5.05823 664.825,0.963994 664.73,11.2761 10.5763,5.25384 Z M 54.2429,30.7893 0.00450693,4.12348e-5 54.8005,-29.7854 c 2.502,-1.36 5.6328,-0.4342 6.9928,2.0677 1.36,2.502 0.4342,5.6328 -2.0678,6.9928 L 13.0839,4.62802 13.1669,-4.38635 59.3339,21.821 c 2.4765,1.4058 3.3444,4.5531 1.9386,7.0296 -1.4058,2.4765 -4.5531,3.3445 -7.0296,1.9387 z M 621.157,-24.5715 675.396,6.21777 620.599,36.0032 c -2.502,1.36 -5.632,0.4343 -6.992,-2.0677 -1.36,-2.502 -0.435,-5.6328 2.067,-6.9928 l 46.642,-25.3529 -0.083,9.0144 -46.167,-26.2074 c -2.476,-1.4058 -3.344,-4.5531 -1.938,-7.0296 1.405,-2.4765 4.553,-3.3445 7.029,-1.9387 z"
       transform="matrix(1,0,0,-1,3542,742.218)"
       id="path4954"
       inkscape:connector-curvature="0"
       style="fill:#ed7d31" />
    <text
       font-weight="400"
       font-size="183"
       transform="translate(3808.28,675)"
       id="text4958"
       style="font-weight:400;font-size:183px;font-family:Calibri, Calibri_MSFontService, sans-serif;fill:#ed7d31">l<tspan
   font-size="183"
   x="41.8228"
   y="0"
   id="tspan4956"
   style="font-size:183px">7</tspan>
</text>
    <path
       d="M 10.6712,-5.05823 664.825,0.963994 664.73,11.2761 10.5763,5.25384 Z M 54.2429,30.7893 0.00450693,4.12348e-5 54.8005,-29.7854 c 2.502,-1.36 5.6328,-0.4342 6.9928,2.0677 1.36,2.502 0.4342,5.6328 -2.0678,6.9928 L 13.0839,4.62802 13.1669,-4.38635 59.3339,21.821 c 2.4765,1.4058 3.3444,4.5531 1.9386,7.0296 -1.4058,2.4765 -4.5531,3.3445 -7.0296,1.9387 z M 621.157,-24.5715 675.396,6.21777 620.599,36.0032 c -2.502,1.36 -5.632,0.4343 -6.992,-2.0677 -1.36,-2.502 -0.435,-5.6328 2.067,-6.9928 l 46.642,-25.3529 -0.083,9.0144 -46.167,-26.2074 c -2.476,-1.4058 -3.344,-4.5531 -1.938,-7.0296 1.405,-2.4765 4.553,-3.3445 7.029,-1.9387 z"
       transform="matrix(1,0,0,-1,4891,743.218)"
       id="path4960"
       inkscape:connector-curvature="0"
       style="fill:#ed7d31" />
    <text
       font-weight="400"
       font-size="183"
       transform="translate(5117.37,676)"
       id="text4962"
       style="font-weight:400;font-size:183px;font-family:Calibri, Calibri_MSFontService, sans-serif;fill:#ed7d31">l10</text>
    <path
       d="m 1525.5,1525.5 h 671.67"
       stroke-miterlimit="8"
       id="path4964"
       inkscape:connector-curvature="0"
       style="fill:none;fill-rule:evenodd;stroke:#ff0000;stroke-width:20.625;stroke-miterlimit:8" />
    <path
       d="m 2870.5,1525.5 h 671.67"
       stroke-miterlimit="8"
       id="path4966"
       inkscape:connector-curvature="0"
       style="fill:none;fill-rule:evenodd;stroke:#ff0000;stroke-width:20.625;stroke-miterlimit:8" />
    <path
       d="m 4210.5,1525.5 h 671.67"
       stroke-miterlimit="8"
       id="path4968"
       inkscape:connector-curvature="0"
       style="fill:none;fill-rule:evenodd;stroke:#ff0000;stroke-width:20.625;stroke-miterlimit:8" />
    <path
       d="m 1523.5,2864.5 h 671.67"
       stroke-miterlimit="8"
       id="path4970"
       inkscape:connector-curvature="0"
       style="fill:none;fill-rule:evenodd;stroke:#ff0000;stroke-width:20.625;stroke-miterlimit:8" />
    <path
       d="m 2868.5,2864.5 h 671.67"
       stroke-miterlimit="8"
       id="path4972"
       inkscape:connector-curvature="0"
       style="fill:none;fill-rule:evenodd;stroke:#ff0000;stroke-width:20.625;stroke-miterlimit:8" />
    <path
       d="m 4208.5,2864.5 h 671.67"
       stroke-miterlimit="8"
       id="path4974"
       inkscape:connector-curvature="0"
       style="fill:none;fill-rule:evenodd;stroke:#ff0000;stroke-width:20.625;stroke-miterlimit:8" />
    <path
       d="m 845.5,4069.5 h 671.67"
       stroke-miterlimit="8"
       id="path4976"
       inkscape:connector-curvature="0"
       style="fill:none;fill-rule:evenodd;stroke:#ff0000;stroke-width:20.625;stroke-miterlimit:8" />
    <text
       font-weight="400"
       font-size="183"
       transform="translate(1622.52,4129)"
       id="text4978"
       style="font-weight:400;font-size:183px;font-family:Calibri, Calibri_MSFontService, sans-serif">Découpe à évaser</text>
  </g>
</svg>
