<svg width="6183" height="3618" xmlns="http://www.w3.org/2000/svg" xmlns:xlink="http://www.w3.org/1999/xlink" overflow="hidden"><defs><clipPath id="clip0"><rect x="345" y="443" width="6183" height="3618"/></clipPath></defs><g clip-path="url(#clip0)" transform="translate(-345 -443)"><rect x="845" y="848" width="4711" height="2694" stroke="#2F528F" stroke-width="10.3125" stroke-miterlimit="8" fill="none"/><path d="M1527 848 1527 3542.25" stroke="#70AD47" stroke-width="10.3125" stroke-miterlimit="8" stroke-dasharray="82.5 30.9375" fill="none" fill-rule="evenodd"/><path d="M1855 848 1855 3542.25" stroke="#70AD47" stroke-width="10.3125" stroke-miterlimit="8" stroke-dasharray="82.5 30.9375" fill="none" fill-rule="evenodd"/><path d="M2196 848 2196 3542.25" stroke="#70AD47" stroke-width="10.3125" stroke-miterlimit="8" stroke-dasharray="82.5 30.9375" fill="none" fill-rule="evenodd"/><path d="M3546 847 3546 3541.25" stroke="#70AD47" stroke-width="10.3125" stroke-miterlimit="8" stroke-dasharray="82.5 30.9375" fill="none" fill-rule="evenodd"/><path d="M4215 847 4215 3541.25" stroke="#70AD47" stroke-width="10.3125" stroke-miterlimit="8" stroke-dasharray="82.5 30.9375" fill="none" fill-rule="evenodd"/><path d="M4545 847 4545 3541.25" stroke="#70AD47" stroke-width="10.3125" stroke-miterlimit="8" stroke-dasharray="82.5 30.9375" fill="none" fill-rule="evenodd"/><path d="M0 0 4710.41 0.000360892" stroke="#ED7D31" stroke-width="10.3125" stroke-miterlimit="8" stroke-dasharray="82.5 30.9375" fill="none" fill-rule="evenodd" transform="matrix(-1 0 0 1 5555.41 1525)"/><path d="M0 0 4710.41 0.000360892" stroke="#ED7D31" stroke-width="10.3125" stroke-miterlimit="8" stroke-dasharray="82.5 30.9375" fill="none" fill-rule="evenodd" transform="matrix(-1 0 0 1 5556.41 2864)"/><path d="M10.6597-5.15625 4699.75-5.15589 4699.75 5.15661 10.6597 5.15625ZM54.524 30.2886 0.00450552 8.98371e-08 54.524-30.2886C57.0134-31.6716 60.1525-30.7747 61.5355-28.2853 62.9185-25.796 62.0216-22.6568 59.5322-21.2739L13.126 4.50737 13.126-4.50737 59.5322 21.2739C62.0216 22.6569 62.9185 25.796 61.5355 28.2854 60.1525 30.7747 57.0134 31.6716 54.524 30.2886ZM4655.89-30.2883 4710.41 0.000360984 4655.89 30.289C4653.4 31.672 4650.26 30.7751 4648.88 28.2857 4647.49 25.7963 4648.39 22.6572 4650.88 21.2742L4697.29-4.50702 4697.29 4.50774 4650.88-21.2735C4648.39-22.6565 4647.49-25.7956 4648.88-28.285 4650.26-30.7743 4653.4-31.6712 4655.89-30.2883Z" fill="#4472C4" transform="matrix(-1 0 0 1 5555.41 3652)"/><path d="M5.15625 10.6086 5.15661 2683.64-5.15589 2683.64-5.15625 10.6086ZM-30.2886 54.524-2.51121e-08 0.00450552 30.2886 54.524C31.6716 57.0134 30.7747 60.1525 28.2854 61.5355 25.796 62.9185 22.6569 62.0216 21.2739 59.5322L-4.50737 13.126 4.50738 13.126-21.2739 59.5322C-22.6568 62.0216-25.796 62.9185-28.2853 61.5355-30.7747 60.1525-31.6716 57.0134-30.2886 54.524ZM30.289 2639.72 0.000369243 2694.24-30.2883 2639.72C-31.6712 2637.23-30.7743 2634.09-28.285 2632.71-25.7956 2631.33-22.6565 2632.22-21.2735 2634.71L4.50773 2681.12-4.50702 2681.12 21.2742 2634.71C22.6572 2632.22 25.7963 2631.33 28.2857 2632.71 30.775 2634.09 31.6719 2637.23 30.289 2639.72Z" fill="#4472C4" transform="matrix(1 0 0 -1 5654 3541.25)"/><path d="M5.15626 10.6226 5.15661 666.659-5.15589 666.659-5.15624 10.6226ZM-30.2886 54.524-1.31668e-07 0.00450552 30.2887 54.524C31.6716 57.0134 30.7747 60.1525 28.2854 61.5355 25.796 62.9185 22.6569 62.0216 21.2739 59.5322L-4.50737 13.126 4.50738 13.126-21.2738 59.5322C-22.6568 62.0216-25.796 62.9185-28.2853 61.5355-30.7747 60.1525-31.6716 57.0134-30.2886 54.524ZM30.289 622.757 0.000359938 677.276-30.2883 622.757C-31.6713 620.267-30.7744 617.128-28.285 615.745-25.7957 614.362-22.6565 615.259-21.2735 617.748L4.50773 664.155-4.50702 664.155 21.2742 617.748C22.6572 615.259 25.7963 614.362 28.2857 615.745 30.775 617.128 31.6719 620.267 30.289 622.757Z" fill="#70AD47" transform="matrix(1 0 0 -1 696 3541.28)"/><path d="M5.15626 10.6226 5.15661 666.659-5.15589 666.659-5.15624 10.6226ZM-30.2886 54.524-1.31668e-07 0.00450552 30.2887 54.524C31.6716 57.0134 30.7747 60.1525 28.2854 61.5355 25.796 62.9185 22.6569 62.0216 21.2739 59.5322L-4.50737 13.126 4.50738 13.126-21.2738 59.5322C-22.6568 62.0216-25.796 62.9185-28.2853 61.5355-30.7747 60.1525-31.6716 57.0134-30.2886 54.524ZM30.289 622.757 0.000359938 677.276-30.2883 622.757C-31.6713 620.267-30.7744 617.128-28.285 615.745-25.7957 614.362-22.6565 615.259-21.2735 617.748L4.50773 664.155-4.50702 664.155 21.2742 617.748C22.6572 615.259 25.7963 614.362 28.2857 615.745 30.775 617.128 31.6719 620.267 30.289 622.757Z" fill="#70AD47" transform="matrix(1 0 0 -1 696 1524.28)"/><path d="M5.15625 10.6148 5.15661 1329.18-5.15589 1329.18-5.15625 10.6148ZM-30.2886 54.524 3.27301e-07 0.00450693 30.2886 54.524C31.6716 57.0134 30.7747 60.1525 28.2854 61.5355 25.796 62.9185 22.6569 62.0216 21.2739 59.5322L-4.50737 13.126 4.50738 13.126-21.2739 59.5322C-22.6568 62.0216-25.796 62.9185-28.2853 61.5355-30.7747 60.1525-31.6716 57.0134-30.2886 54.524ZM30.289 1285.28 0.000359841 1339.8-30.2883 1285.28C-31.6713 1282.79-30.7744 1279.65-28.285 1278.26-25.7956 1276.88-22.6565 1277.78-21.2735 1280.27L4.50773 1326.67-4.50702 1326.67 21.2742 1280.27C22.6572 1277.78 25.7963 1276.88 28.2857 1278.26 30.775 1279.65 31.6719 1282.79 30.289 1285.28Z" fill="#70AD47" transform="matrix(1 0 0 -1 696 2864.8)"/><path d="M10.6219-5.15624 323.9-5.1559 323.9 5.1566 10.6218 5.15626ZM54.524 30.2887 0.00450693-1.23942e-07 54.5241-30.2886C57.0134-31.6715 60.1526-30.7746 61.5355-28.2853 62.9185-25.7959 62.0216-22.6568 59.5322-21.2738L13.126 4.50739 13.126-4.50736 59.5322 21.2739C62.0215 22.6569 62.9184 25.7961 61.5355 28.2854 60.1525 30.7748 57.0133 31.6717 54.524 30.2887ZM279.997-30.2883 334.516 0.000360292 279.997 30.2889C277.507 31.6719 274.368 30.775 272.985 28.2856 271.602 25.7963 272.499 22.6571 274.989 21.2742L321.395-4.50703 321.395 4.50772 274.989-21.2736C272.499-22.6566 271.602-25.7957 272.985-28.2851 274.368-30.7744 277.508-31.6713 279.997-30.2883Z" fill="#ED7D31" transform="matrix(1 0 0 -1 1525 738)"/><path d="M10.6712-5.05823 664.825 0.963994 664.73 11.2761 10.5763 5.25384ZM54.2429 30.7893 0.00450693 4.12348e-05 54.8005-29.7854C57.3025-31.1454 60.4333-30.2196 61.7933-27.7177 63.1533-25.2157 62.2275-22.0849 59.7255-20.7249L13.0839 4.62802 13.1669-4.38635 59.3339 21.821C61.8104 23.2268 62.6783 26.3741 61.2725 28.8506 59.8667 31.3271 56.7194 32.1951 54.2429 30.7893ZM621.157-24.5715 675.396 6.21777 620.599 36.0032C618.097 37.3632 614.967 36.4375 613.607 33.9355 612.247 31.4335 613.172 28.3027 615.674 26.9427L662.316 1.5898 662.233 10.6042 616.066-15.6032C613.59-17.009 612.722-20.1563 614.128-22.6328 615.533-25.1093 618.681-25.9773 621.157-24.5715Z" fill="#ED7D31" transform="matrix(1 0 0 -1 853 743.218)"/><text fill="#44546A" font-family="Calibri,Calibri_MSFontService,sans-serif" font-weight="400" font-size="183" transform="matrix(1 0 0 1 2874.25 3902)">Longueur<tspan font-size="183" x="2812.75" y="-1646">Largeur</tspan><tspan fill="#ED7D31" font-size="183" x="-1217.59" y="-3231">h</tspan><tspan fill="#ED7D31" font-size="183" x="-1755.27" y="-3226">s1</tspan><tspan fill="#70AD47" font-size="183" x="-2419.13" y="-2655">w1</tspan><tspan fill="#70AD47" font-size="183" x="-2419.13" y="-1647">w2</tspan><tspan fill="#70AD47" font-size="183" x="-2417.93" y="-638">w</tspan><tspan fill="#70AD47" font-size="183" x="-2286.73" y="-638">3</tspan></text><path d="M2870 848 2870 3542.25" stroke="#70AD47" stroke-width="10.3125" stroke-miterlimit="8" stroke-dasharray="82.5 30.9375" fill="none" fill-rule="evenodd"/><path d="M3201 847 3201 3541.25" stroke="#70AD47" stroke-width="10.3125" stroke-miterlimit="8" stroke-dasharray="82.5 30.9375" fill="none" fill-rule="evenodd"/><path d="M4885 848 4885 3542.25" stroke="#70AD47" stroke-width="10.3125" stroke-miterlimit="8" stroke-dasharray="82.5 30.9375" fill="none" fill-rule="evenodd"/><path d="M10.6219-5.15624 323.9-5.1559 323.9 5.1566 10.6218 5.15626ZM54.524 30.2887 0.00450693-1.23942e-07 54.5241-30.2886C57.0134-31.6715 60.1526-30.7746 61.5355-28.2853 62.9185-25.7959 62.0216-22.6568 59.5322-21.2738L13.126 4.50739 13.126-4.50736 59.5322 21.2739C62.0215 22.6569 62.9184 25.7961 61.5355 28.2854 60.1525 30.7748 57.0133 31.6717 54.524 30.2887ZM279.997-30.2883 334.516 0.000360292 279.997 30.2889C277.507 31.6719 274.368 30.775 272.985 28.2856 271.602 25.7963 272.499 22.6571 274.989 21.2742L321.395-4.50703 321.395 4.50772 274.989-21.2736C272.499-22.6566 271.602-25.7957 272.985-28.2851 274.368-30.7744 277.508-31.6713 279.997-30.2883Z" fill="#ED7D31" transform="matrix(1 0 0 -1 1858 738)"/><text fill="#ED7D31" font-family="Calibri,Calibri_MSFontService,sans-serif" font-weight="400" font-size="183" transform="matrix(1 0 0 1 1990.46 671)">h</text><path d="M10.6219-5.15624 323.9-5.1559 323.9 5.1566 10.6218 5.15626ZM54.524 30.2887 0.00450693-1.23942e-07 54.5241-30.2886C57.0134-31.6715 60.1526-30.7746 61.5355-28.2853 62.9185-25.7959 62.0216-22.6568 59.5322-21.2738L13.126 4.50739 13.126-4.50736 59.5322 21.2739C62.0215 22.6569 62.9184 25.7961 61.5355 28.2854 60.1525 30.7748 57.0133 31.6717 54.524 30.2887ZM279.997-30.2883 334.516 0.000360292 279.997 30.2889C277.507 31.6719 274.368 30.775 272.985 28.2856 271.602 25.7963 272.499 22.6571 274.989 21.2742L321.395-4.50703 321.395 4.50772 274.989-21.2736C272.499-22.6566 271.602-25.7957 272.985-28.2851 274.368-30.7744 277.508-31.6713 279.997-30.2883Z" fill="#ED7D31" transform="matrix(1 0 0 -1 2874 737)"/><text fill="#ED7D31" font-family="Calibri,Calibri_MSFontService,sans-serif" font-weight="400" font-size="183" transform="matrix(1 0 0 1 3006.55 670)">h</text><path d="M10.6219-5.15624 323.9-5.1559 323.9 5.1566 10.6218 5.15626ZM54.524 30.2887 0.00450693-1.23942e-07 54.5241-30.2886C57.0134-31.6715 60.1526-30.7746 61.5355-28.2853 62.9185-25.7959 62.0216-22.6568 59.5322-21.2738L13.126 4.50739 13.126-4.50736 59.5322 21.2739C62.0215 22.6569 62.9184 25.7961 61.5355 28.2854 60.1525 30.7748 57.0133 31.6717 54.524 30.2887ZM279.997-30.2883 334.516 0.000360292 279.997 30.2889C277.507 31.6719 274.368 30.775 272.985 28.2856 271.602 25.7963 272.499 22.6571 274.989 21.2742L321.395-4.50703 321.395 4.50772 274.989-21.2736C272.499-22.6566 271.602-25.7957 272.985-28.2851 274.368-30.7744 277.508-31.6713 279.997-30.2883Z" fill="#ED7D31" transform="matrix(1 0 0 -1 3208 737)"/><text fill="#ED7D31" font-family="Calibri,Calibri_MSFontService,sans-serif" font-weight="400" font-size="183" transform="matrix(1 0 0 1 3340.35 670)">h</text><path d="M10.6219-5.15624 323.9-5.1559 323.9 5.1566 10.6218 5.15626ZM54.524 30.2887 0.00450693-1.23942e-07 54.5241-30.2886C57.0134-31.6715 60.1526-30.7746 61.5355-28.2853 62.9185-25.7959 62.0216-22.6568 59.5322-21.2738L13.126 4.50739 13.126-4.50736 59.5322 21.2739C62.0215 22.6569 62.9184 25.7961 61.5355 28.2854 60.1525 30.7748 57.0133 31.6717 54.524 30.2887ZM279.997-30.2883 334.516 0.000360292 279.997 30.2889C277.507 31.6719 274.368 30.775 272.985 28.2856 271.602 25.7963 272.499 22.6571 274.989 21.2742L321.395-4.50703 321.395 4.50772 274.989-21.2736C272.499-22.6566 271.602-25.7957 272.985-28.2851 274.368-30.7744 277.508-31.6713 279.997-30.2883Z" fill="#ED7D31" transform="matrix(1 0 0 -1 4228 743)"/><text fill="#ED7D31" font-family="Calibri,Calibri_MSFontService,sans-serif" font-weight="400" font-size="183" transform="matrix(1 0 0 1 4359.79 676)">h</text><path d="M10.6219-5.15624 323.9-5.1559 323.9 5.1566 10.6218 5.15626ZM54.524 30.2887 0.00450693-1.23942e-07 54.5241-30.2886C57.0134-31.6715 60.1526-30.7746 61.5355-28.2853 62.9185-25.7959 62.0216-22.6568 59.5322-21.2738L13.126 4.50739 13.126-4.50736 59.5322 21.2739C62.0215 22.6569 62.9184 25.7961 61.5355 28.2854 60.1525 30.7748 57.0133 31.6717 54.524 30.2887ZM279.997-30.2883 334.516 0.000360292 279.997 30.2889C277.507 31.6719 274.368 30.775 272.985 28.2856 271.602 25.7963 272.499 22.6571 274.989 21.2742L321.395-4.50703 321.395 4.50772 274.989-21.2736C272.499-22.6566 271.602-25.7957 272.985-28.2851 274.368-30.7744 277.508-31.6713 279.997-30.2883Z" fill="#ED7D31" transform="matrix(1 0 0 -1 4562 743)"/><text fill="#ED7D31" font-family="Calibri,Calibri_MSFontService,sans-serif" font-weight="400" font-size="183" transform="matrix(1 0 0 1 4693.58 676)">h</text><path d="M10.6712-5.05823 664.825 0.963994 664.73 11.2761 10.5763 5.25384ZM54.2429 30.7893 0.00450693 4.12348e-05 54.8005-29.7854C57.3025-31.1454 60.4333-30.2196 61.7933-27.7177 63.1533-25.2157 62.2275-22.0849 59.7255-20.7249L13.0839 4.62802 13.1669-4.38635 59.3339 21.821C61.8104 23.2268 62.6783 26.3741 61.2725 28.8506 59.8667 31.3271 56.7194 32.1951 54.2429 30.7893ZM621.157-24.5715 675.396 6.21777 620.599 36.0032C618.097 37.3632 614.967 36.4375 613.607 33.9355 612.247 31.4335 613.172 28.3027 615.674 26.9427L662.316 1.5898 662.233 10.6042 616.066-15.6032C613.59-17.009 612.722-20.1563 614.128-22.6328 615.533-25.1093 618.681-25.9773 621.157-24.5715Z" fill="#ED7D31" transform="matrix(1 0 0 -1 2182 743.218)"/><text fill="#ED7D31" font-family="Calibri,Calibri_MSFontService,sans-serif" font-weight="400" font-size="183" transform="matrix(1 0 0 1 2448.48 676)">s<tspan font-size="183" x="71.6145" y="0">2</tspan></text><path d="M10.6712-5.05823 664.825 0.963994 664.73 11.2761 10.5763 5.25384ZM54.2429 30.7893 0.00450693 4.12348e-05 54.8005-29.7854C57.3025-31.1454 60.4333-30.2196 61.7933-27.7177 63.1533-25.2157 62.2275-22.0849 59.7255-20.7249L13.0839 4.62802 13.1669-4.38635 59.3339 21.821C61.8104 23.2268 62.6783 26.3741 61.2725 28.8506 59.8667 31.3271 56.7194 32.1951 54.2429 30.7893ZM621.157-24.5715 675.396 6.21777 620.599 36.0032C618.097 37.3632 614.967 36.4375 613.607 33.9355 612.247 31.4335 613.172 28.3027 615.674 26.9427L662.316 1.5898 662.233 10.6042 616.066-15.6032C613.59-17.009 612.722-20.1563 614.128-22.6328 615.533-25.1093 618.681-25.9773 621.157-24.5715Z" fill="#ED7D31" transform="matrix(1 0 0 -1 3542 742.218)"/><text fill="#ED7D31" font-family="Calibri,Calibri_MSFontService,sans-serif" font-weight="400" font-size="183" transform="matrix(1 0 0 1 3808.28 675)">s3</text><path d="M10.6712-5.05823 664.825 0.963994 664.73 11.2761 10.5763 5.25384ZM54.2429 30.7893 0.00450693 4.12348e-05 54.8005-29.7854C57.3025-31.1454 60.4333-30.2196 61.7933-27.7177 63.1533-25.2157 62.2275-22.0849 59.7255-20.7249L13.0839 4.62802 13.1669-4.38635 59.3339 21.821C61.8104 23.2268 62.6783 26.3741 61.2725 28.8506 59.8667 31.3271 56.7194 32.1951 54.2429 30.7893ZM621.157-24.5715 675.396 6.21777 620.599 36.0032C618.097 37.3632 614.967 36.4375 613.607 33.9355 612.247 31.4335 613.172 28.3027 615.674 26.9427L662.316 1.5898 662.233 10.6042 616.066-15.6032C613.59-17.009 612.722-20.1563 614.128-22.6328 615.533-25.1093 618.681-25.9773 621.157-24.5715Z" fill="#ED7D31" transform="matrix(1 0 0 -1 4891 743.218)"/><text fill="#ED7D31" font-family="Calibri,Calibri_MSFontService,sans-serif" font-weight="400" font-size="183" transform="matrix(1 0 0 1 5157.2 676)">s<tspan font-size="183" x="71.6148" y="0">4</tspan></text></g></svg>