<svg width="6155" height="3612" xmlns="http://www.w3.org/2000/svg" xmlns:xlink="http://www.w3.org/1999/xlink" overflow="hidden"><defs><clipPath id="clip0"><rect x="373" y="449" width="6155" height="3612"/></clipPath></defs><g clip-path="url(#clip0)" transform="translate(-373 -449)"><rect x="845" y="848" width="4711" height="2694" stroke="#2F528F" stroke-width="10.3125" stroke-miterlimit="8" fill="none"/><path d="M1186 848 1186 3542.25" stroke="#70AD47" stroke-width="10.3125" stroke-miterlimit="8" stroke-dasharray="82.5 30.9375" fill="none" fill-rule="evenodd"/><path d="M1855 848 1855 3542.25" stroke="#70AD47" stroke-width="10.3125" stroke-miterlimit="8" stroke-dasharray="82.5 30.9375" fill="none" fill-rule="evenodd"/><path d="M2526 847 2526 3541.25" stroke="#70AD47" stroke-width="10.3125" stroke-miterlimit="8" stroke-dasharray="82.5 30.9375" fill="none" fill-rule="evenodd"/><path d="M3876 847 3876 3541.25" stroke="#70AD47" stroke-width="10.3125" stroke-miterlimit="8" stroke-dasharray="82.5 30.9375" fill="none" fill-rule="evenodd"/><path d="M4550 847 4550 3541.25" stroke="#70AD47" stroke-width="10.3125" stroke-miterlimit="8" stroke-dasharray="82.5 30.9375" fill="none" fill-rule="evenodd"/><path d="M5223 847 5223 3541.25" stroke="#70AD47" stroke-width="10.3125" stroke-miterlimit="8" stroke-dasharray="82.5 30.9375" fill="none" fill-rule="evenodd"/><path d="M0 0 4710.41 0.000360892" stroke="#ED7D31" stroke-width="10.3125" stroke-miterlimit="8" stroke-dasharray="82.5 30.9375" fill="none" fill-rule="evenodd" transform="matrix(-1 0 0 1 5555.41 1525)"/><path d="M0 0 4710.41 0.000360892" stroke="#ED7D31" stroke-width="10.3125" stroke-miterlimit="8" stroke-dasharray="82.5 30.9375" fill="none" fill-rule="evenodd" transform="matrix(-1 0 0 1 5556.41 2864)"/><path d="M10.6597-5.15625 4699.75-5.15589 4699.75 5.15661 10.6597 5.15625ZM54.524 30.2886 0.00450552 8.98371e-08 54.524-30.2886C57.0134-31.6716 60.1525-30.7747 61.5355-28.2853 62.9185-25.796 62.0216-22.6568 59.5322-21.2739L13.126 4.50737 13.126-4.50737 59.5322 21.2739C62.0216 22.6569 62.9185 25.796 61.5355 28.2854 60.1525 30.7747 57.0134 31.6716 54.524 30.2886ZM4655.89-30.2883 4710.41 0.000360984 4655.89 30.289C4653.4 31.672 4650.26 30.7751 4648.88 28.2857 4647.49 25.7963 4648.39 22.6572 4650.88 21.2742L4697.29-4.50702 4697.29 4.50774 4650.88-21.2735C4648.39-22.6565 4647.49-25.7956 4648.88-28.285 4650.26-30.7743 4653.4-31.6712 4655.89-30.2883Z" fill="#4472C4" transform="matrix(-1 0 0 1 5555.41 3652)"/><path d="M5.15625 10.6086 5.15661 2683.64-5.15589 2683.64-5.15625 10.6086ZM-30.2886 54.524-2.51121e-08 0.00450552 30.2886 54.524C31.6716 57.0134 30.7747 60.1525 28.2854 61.5355 25.796 62.9185 22.6569 62.0216 21.2739 59.5322L-4.50737 13.126 4.50738 13.126-21.2739 59.5322C-22.6568 62.0216-25.796 62.9185-28.2853 61.5355-30.7747 60.1525-31.6716 57.0134-30.2886 54.524ZM30.289 2639.72 0.000369243 2694.24-30.2883 2639.72C-31.6712 2637.23-30.7743 2634.09-28.285 2632.71-25.7956 2631.33-22.6565 2632.22-21.2735 2634.71L4.50773 2681.12-4.50702 2681.12 21.2742 2634.71C22.6572 2632.22 25.7963 2631.33 28.2857 2632.71 30.775 2634.09 31.6719 2637.23 30.289 2639.72Z" fill="#4472C4" transform="matrix(1 0 0 -1 5654 3541.25)"/><path d="M5.15626 10.6226 5.15661 666.659-5.15589 666.659-5.15624 10.6226ZM-30.2886 54.524-1.31668e-07 0.00450552 30.2887 54.524C31.6716 57.0134 30.7747 60.1525 28.2854 61.5355 25.796 62.9185 22.6569 62.0216 21.2739 59.5322L-4.50737 13.126 4.50738 13.126-21.2738 59.5322C-22.6568 62.0216-25.796 62.9185-28.2853 61.5355-30.7747 60.1525-31.6716 57.0134-30.2886 54.524ZM30.289 622.757 0.000359938 677.276-30.2883 622.757C-31.6713 620.267-30.7744 617.128-28.285 615.745-25.7957 614.362-22.6565 615.259-21.2735 617.748L4.50773 664.155-4.50702 664.155 21.2742 617.748C22.6572 615.259 25.7963 614.362 28.2857 615.745 30.775 617.128 31.6719 620.267 30.289 622.757Z" fill="#70AD47" transform="matrix(1 0 0 -1 696 3541.28)"/><path d="M5.15626 10.6226 5.15661 666.659-5.15589 666.659-5.15624 10.6226ZM-30.2886 54.524-1.31668e-07 0.00450552 30.2887 54.524C31.6716 57.0134 30.7747 60.1525 28.2854 61.5355 25.796 62.9185 22.6569 62.0216 21.2739 59.5322L-4.50737 13.126 4.50738 13.126-21.2738 59.5322C-22.6568 62.0216-25.796 62.9185-28.2853 61.5355-30.7747 60.1525-31.6716 57.0134-30.2886 54.524ZM30.289 622.757 0.000359938 677.276-30.2883 622.757C-31.6713 620.267-30.7744 617.128-28.285 615.745-25.7957 614.362-22.6565 615.259-21.2735 617.748L4.50773 664.155-4.50702 664.155 21.2742 617.748C22.6572 615.259 25.7963 614.362 28.2857 615.745 30.775 617.128 31.6719 620.267 30.289 622.757Z" fill="#70AD47" transform="matrix(1 0 0 -1 696 1524.28)"/><path d="M5.15625 10.6148 5.15661 1329.18-5.15589 1329.18-5.15625 10.6148ZM-30.2886 54.524 3.27301e-07 0.00450693 30.2886 54.524C31.6716 57.0134 30.7747 60.1525 28.2854 61.5355 25.796 62.9185 22.6569 62.0216 21.2739 59.5322L-4.50737 13.126 4.50738 13.126-21.2739 59.5322C-22.6568 62.0216-25.796 62.9185-28.2853 61.5355-30.7747 60.1525-31.6716 57.0134-30.2886 54.524ZM30.289 1285.28 0.000359841 1339.8-30.2883 1285.28C-31.6713 1282.79-30.7744 1279.65-28.285 1278.26-25.7956 1276.88-22.6565 1277.78-21.2735 1280.27L4.50773 1326.67-4.50702 1326.67 21.2742 1280.27C22.6572 1277.78 25.7963 1276.88 28.2857 1278.26 30.775 1279.65 31.6719 1282.79 30.289 1285.28Z" fill="#70AD47" transform="matrix(1 0 0 -1 696 2864.8)"/><path d="M10.6219-5.15624 323.9-5.1559 323.9 5.1566 10.6218 5.15626ZM54.524 30.2887 0.00450693-1.23942e-07 54.5241-30.2886C57.0134-31.6715 60.1526-30.7746 61.5355-28.2853 62.9185-25.7959 62.0216-22.6568 59.5322-21.2738L13.126 4.50739 13.126-4.50736 59.5322 21.2739C62.0215 22.6569 62.9184 25.7961 61.5355 28.2854 60.1525 30.7748 57.0133 31.6717 54.524 30.2887ZM279.997-30.2883 334.516 0.000360292 279.997 30.2889C277.507 31.6719 274.368 30.775 272.985 28.2856 271.602 25.7963 272.499 22.6571 274.989 21.2742L321.395-4.50703 321.395 4.50772 274.989-21.2736C272.499-22.6566 271.602-25.7957 272.985-28.2851 274.368-30.7744 277.508-31.6713 279.997-30.2883Z" fill="#ED7D31" transform="matrix(1 0 0 -1 845 743)"/><path d="M10.6712-5.05823 664.825 0.963994 664.73 11.2761 10.5763 5.25384ZM54.2429 30.7893 0.00450693 4.12348e-05 54.8005-29.7854C57.3025-31.1454 60.4333-30.2196 61.7933-27.7177 63.1533-25.2157 62.2275-22.0849 59.7255-20.7249L13.0839 4.62802 13.1669-4.38635 59.3339 21.821C61.8104 23.2268 62.6783 26.3741 61.2725 28.8506 59.8667 31.3271 56.7194 32.1951 54.2429 30.7893ZM621.157-24.5715 675.396 6.21777 620.599 36.0032C618.097 37.3632 614.967 36.4375 613.607 33.9355 612.247 31.4335 613.172 28.3027 615.674 26.9427L662.316 1.5898 662.233 10.6042 616.066-15.6032C613.59-17.009 612.722-20.1563 614.128-22.6328 615.533-25.1093 618.681-25.9773 621.157-24.5715Z" fill="#ED7D31" transform="matrix(1 0 0 -1 1180 743.218)"/><path d="M10.6712-5.05823 664.825 0.963994 664.73 11.2761 10.5763 5.25384ZM54.2429 30.7893 0.00450693 4.12348e-05 54.8005-29.7854C57.3025-31.1454 60.4333-30.2196 61.7933-27.7177 63.1533-25.2157 62.2275-22.0849 59.7255-20.7249L13.0839 4.62802 13.1669-4.38635 59.3339 21.821C61.8104 23.2268 62.6783 26.3741 61.2725 28.8506 59.8667 31.3271 56.7194 32.1951 54.2429 30.7893ZM621.157-24.5715 675.396 6.21777 620.599 36.0032C618.097 37.3632 614.967 36.4375 613.607 33.9355 612.247 31.4335 613.172 28.3027 615.674 26.9427L662.316 1.5898 662.233 10.6042 616.066-15.6032C613.59-17.009 612.722-20.1563 614.128-22.6328 615.533-25.1093 618.681-25.9773 621.157-24.5715Z" fill="#ED7D31" transform="matrix(1 0 0 -1 1851 741.218)"/><path d="M10.6451-5.1197 1338.65-0.55631 1338.61 9.75613 10.6097 5.19274ZM54.4196 30.4758 0.00450693 1.51079e-05 54.6278-30.1011C57.1219-31.4755 60.2579-30.5678 61.6323-28.0737 63.0067-25.5796 62.0991-22.4436 59.605-21.0692L13.1104 4.55245 13.1414-4.46224 59.4588 21.4783C61.9433 22.8698 62.8295 26.012 61.4379 28.4966 60.0464 30.9812 56.9042 31.8673 54.4196 30.4758ZM1294.83-25.8394 1349.24 4.63637 1294.62 34.7375C1292.12 36.1119 1288.99 35.2042 1287.61 32.7101 1286.24 30.216 1287.15 27.08 1289.64 25.7056L1336.13 0.0839329 1336.1 9.09863 1289.79-16.8419C1287.3-18.2335 1286.42-21.3757 1287.81-23.8602 1289.2-26.3448 1292.34-27.2309 1294.83-25.8394Z" fill="#ED7D31" transform="matrix(1 0 0 -1 2526 739.636)"/><path d="M10.6712-5.05823 664.825 0.963994 664.73 11.2761 10.5763 5.25384ZM54.2429 30.7893 0.00450693 4.12348e-05 54.8005-29.7854C57.3025-31.1454 60.4333-30.2196 61.7933-27.7177 63.1533-25.2157 62.2275-22.0849 59.7255-20.7249L13.0839 4.62802 13.1669-4.38635 59.3339 21.821C61.8104 23.2268 62.6783 26.3741 61.2725 28.8506 59.8667 31.3271 56.7194 32.1951 54.2429 30.7893ZM621.157-24.5715 675.396 6.21777 620.599 36.0032C618.097 37.3632 614.967 36.4375 613.607 33.9355 612.247 31.4335 613.172 28.3027 615.674 26.9427L662.316 1.5898 662.233 10.6042 616.066-15.6032C613.59-17.009 612.722-20.1563 614.128-22.6328 615.533-25.1093 618.681-25.9773 621.157-24.5715Z" fill="#ED7D31" transform="matrix(1 0 0 -1 3876 739.218)"/><path d="M10.6712-5.05823 664.825 0.963994 664.73 11.2761 10.5763 5.25384ZM54.2429 30.7893 0.00450693 4.12348e-05 54.8005-29.7854C57.3025-31.1454 60.4333-30.2196 61.7933-27.7177 63.1533-25.2157 62.2275-22.0849 59.7255-20.7249L13.0839 4.62802 13.1669-4.38635 59.3339 21.821C61.8104 23.2268 62.6783 26.3741 61.2725 28.8506 59.8667 31.3271 56.7194 32.1951 54.2429 30.7893ZM621.157-24.5715 675.396 6.21777 620.599 36.0032C618.097 37.3632 614.967 36.4375 613.607 33.9355 612.247 31.4335 613.172 28.3027 615.674 26.9427L662.316 1.5898 662.233 10.6042 616.066-15.6032C613.59-17.009 612.722-20.1563 614.128-22.6328 615.533-25.1093 618.681-25.9773 621.157-24.5715Z" fill="#ED7D31" transform="matrix(1 0 0 -1 4550 738.218)"/><path d="M10.6219-5.15624 323.9-5.1559 323.9 5.1566 10.6218 5.15626ZM54.524 30.2887 0.00450693-1.23942e-07 54.5241-30.2886C57.0134-31.6715 60.1526-30.7746 61.5355-28.2853 62.9185-25.7959 62.0216-22.6568 59.5322-21.2738L13.126 4.50739 13.126-4.50736 59.5322 21.2739C62.0215 22.6569 62.9184 25.7961 61.5355 28.2854 60.1525 30.7748 57.0133 31.6717 54.524 30.2887ZM279.997-30.2883 334.516 0.000360292 279.997 30.2889C277.507 31.6719 274.368 30.775 272.985 28.2856 271.602 25.7963 272.499 22.6571 274.989 21.2742L321.395-4.50703 321.395 4.50772 274.989-21.2736C272.499-22.6566 271.602-25.7957 272.985-28.2851 274.368-30.7744 277.508-31.6713 279.997-30.2883Z" fill="#ED7D31" transform="matrix(1 0 0 -1 5225 741)"/><text fill="#44546A" font-family="Calibri,Calibri_MSFontService,sans-serif" font-weight="400" font-size="183" transform="matrix(1 0 0 1 2874.25 3902)">Largeur<tspan font-size="183" x="2812.75" y="-1646">Longueur</tspan><tspan fill="#ED7D31" font-size="183" x="-1999.26" y="-3226">w1</tspan><tspan fill="#ED7D31" font-size="183" x="-1490.78" y="-3226">w2</tspan><tspan fill="#ED7D31" font-size="183" x="-802.06" y="-3226">w3</tspan><tspan fill="#ED7D31" font-size="183" x="213.008" y="-3226">w4</tspan><tspan fill="#ED7D31" font-size="183" x="1202.11" y="-3226">w5</tspan><tspan fill="#ED7D31" font-size="183" x="1868.82" y="-3226">w6</tspan><tspan fill="#ED7D31" font-size="183" x="2397.32" y="-3226">w7</tspan><tspan fill="#70AD47" font-size="183" x="-2390.68" y="-2655">l1</tspan><tspan fill="#70AD47" font-size="183" x="-2390.68" y="-1647">l2</tspan><tspan fill="#70AD47" font-size="183" x="-2389.48" y="-638">l3</tspan></text></g></svg>