<svg width="5776" height="2941" xmlns="http://www.w3.org/2000/svg" xmlns:xlink="http://www.w3.org/1999/xlink" overflow="hidden"><defs><clipPath id="clip0"><rect x="790" y="443" width="5776" height="2941"/></clipPath></defs><g clip-path="url(#clip0)" transform="translate(-790 -443)"><rect x="845" y="848" width="4711" height="2020" stroke="#2F528F" stroke-width="10.3125" stroke-miterlimit="8" fill="none"/><path d="M10.6597-5.15625 4699.75-5.15589 4699.75 5.15661 10.6597 5.15625ZM54.524 30.2886 0.00450552 8.98371e-08 54.524-30.2886C57.0134-31.6716 60.1525-30.7747 61.5355-28.2853 62.9185-25.796 62.0216-22.6568 59.5322-21.2739L13.126 4.50737 13.126-4.50737 59.5322 21.2739C62.0216 22.6569 62.9185 25.796 61.5355 28.2854 60.1525 30.7747 57.0134 31.6716 54.524 30.2886ZM4655.89-30.2883 4710.41 0.000360984 4655.89 30.289C4653.4 31.672 4650.26 30.7751 4648.88 28.2857 4647.49 25.7963 4648.39 22.6572 4650.88 21.2742L4697.29-4.50702 4697.29 4.50774 4650.88-21.2735C4648.39-22.6565 4647.49-25.7956 4648.88-28.285 4650.26-30.7743 4653.4-31.6712 4655.89-30.2883Z" fill="#4472C4" transform="matrix(-1 0 0 1 5555.41 2975)"/><path d="M5.15625 10.5956 5.15661 2009.36-5.15589 2009.36-5.15625 10.5956ZM-30.2886 54.524 8.78194e-08 0.00450693 30.2886 54.524C31.6716 57.0134 30.7747 60.1525 28.2854 61.5355 25.796 62.9185 22.6569 62.0216 21.2739 59.5322L-4.50737 13.126 4.50738 13.126-21.2739 59.5322C-22.6568 62.0216-25.796 62.9185-28.2853 61.5355-30.7747 60.1525-31.6716 57.0134-30.2886 54.524ZM30.289 1965.46 0.00036913 2019.98-30.2883 1965.46C-31.6712 1962.97-30.7744 1959.83-28.285 1958.45-25.7956 1957.07-22.6565 1957.96-21.2735 1960.45L4.50773 2006.86-4.50702 2006.86 21.2742 1960.45C22.6572 1957.96 25.7963 1957.07 28.2857 1958.45 30.775 1959.83 31.6719 1962.97 30.289 1965.46Z" fill="#4472C4" transform="matrix(1 0 0 -1 5654 2866.98)"/><text fill="#44546A" font-family="Calibri,Calibri_MSFontService,sans-serif" font-weight="400" font-size="183" transform="matrix(1 0 0 1 2874.25 3225)">Longueur<tspan font-size="183" x="2850.33" y="-1307">Largeur</tspan></text><path d="M10.6219-5.15624 323.9-5.1559 323.9 5.1566 10.6218 5.15626ZM54.524 30.2887 0.00450693-1.23942e-07 54.5241-30.2886C57.0134-31.6715 60.1526-30.7746 61.5355-28.2853 62.9185-25.7959 62.0216-22.6568 59.5322-21.2738L13.126 4.50739 13.126-4.50736 59.5322 21.2739C62.0215 22.6569 62.9184 25.7961 61.5355 28.2854 60.1525 30.7748 57.0133 31.6717 54.524 30.2887ZM279.997-30.2883 334.516 0.000360292 279.997 30.2889C277.507 31.6719 274.368 30.775 272.985 28.2856 271.602 25.7963 272.499 22.6571 274.989 21.2742L321.395-4.50703 321.395 4.50772 274.989-21.2736C272.499-22.6566 271.602-25.7957 272.985-28.2851 274.368-30.7744 277.508-31.6713 279.997-30.2883Z" fill="#ED7D31" transform="matrix(1 0 0 -1 1525 738)"/><path d="M10.6712-5.05823 664.825 0.963994 664.73 11.2761 10.5763 5.25384ZM54.2429 30.7893 0.00450693 4.12348e-05 54.8005-29.7854C57.3025-31.1454 60.4333-30.2196 61.7933-27.7177 63.1533-25.2157 62.2275-22.0849 59.7255-20.7249L13.0839 4.62802 13.1669-4.38635 59.3339 21.821C61.8104 23.2268 62.6783 26.3741 61.2725 28.8506 59.8667 31.3271 56.7194 32.1951 54.2429 30.7893ZM621.157-24.5715 675.396 6.21777 620.599 36.0032C618.097 37.3632 614.967 36.4375 613.607 33.9355 612.247 31.4335 613.172 28.3027 615.674 26.9427L662.316 1.5898 662.233 10.6042 616.066-15.6032C613.59-17.009 612.722-20.1563 614.128-22.6328 615.533-25.1093 618.681-25.9773 621.157-24.5715Z" fill="#ED7D31" transform="matrix(1 0 0 -1 853 743.218)"/><text fill="#ED7D31" font-family="Calibri,Calibri_MSFontService,sans-serif" font-weight="400" font-size="183" transform="matrix(1 0 0 1 1622.52 671)">l2<tspan font-size="183" x="-503.546" y="5">l1</tspan></text><path d="M10.6219-5.15624 323.9-5.1559 323.9 5.1566 10.6218 5.15626ZM54.524 30.2887 0.00450693-1.23942e-07 54.5241-30.2886C57.0134-31.6715 60.1526-30.7746 61.5355-28.2853 62.9185-25.7959 62.0216-22.6568 59.5322-21.2738L13.126 4.50739 13.126-4.50736 59.5322 21.2739C62.0215 22.6569 62.9184 25.7961 61.5355 28.2854 60.1525 30.7748 57.0133 31.6717 54.524 30.2887ZM279.997-30.2883 334.516 0.000360292 279.997 30.2889C277.507 31.6719 274.368 30.775 272.985 28.2856 271.602 25.7963 272.499 22.6571 274.989 21.2742L321.395-4.50703 321.395 4.50772 274.989-21.2736C272.499-22.6566 271.602-25.7957 272.985-28.2851 274.368-30.7744 277.508-31.6713 279.997-30.2883Z" fill="#ED7D31" transform="matrix(1 0 0 -1 1858 738)"/><text fill="#ED7D31" font-family="Calibri,Calibri_MSFontService,sans-serif" font-weight="400" font-size="183" transform="matrix(1 0 0 1 1956.32 671)">l3</text><path d="M10.6219-5.15624 323.9-5.1559 323.9 5.1566 10.6218 5.15626ZM54.524 30.2887 0.00450693-1.23942e-07 54.5241-30.2886C57.0134-31.6715 60.1526-30.7746 61.5355-28.2853 62.9185-25.7959 62.0216-22.6568 59.5322-21.2738L13.126 4.50739 13.126-4.50736 59.5322 21.2739C62.0215 22.6569 62.9184 25.7961 61.5355 28.2854 60.1525 30.7748 57.0133 31.6717 54.524 30.2887ZM279.997-30.2883 334.516 0.000360292 279.997 30.2889C277.507 31.6719 274.368 30.775 272.985 28.2856 271.602 25.7963 272.499 22.6571 274.989 21.2742L321.395-4.50703 321.395 4.50772 274.989-21.2736C272.499-22.6566 271.602-25.7957 272.985-28.2851 274.368-30.7744 277.508-31.6713 279.997-30.2883Z" fill="#ED7D31" transform="matrix(1 0 0 -1 2874 737)"/><text fill="#ED7D31" font-family="Calibri,Calibri_MSFontService,sans-serif" font-weight="400" font-size="183" transform="matrix(1 0 0 1 2972.41 670)">l5</text><path d="M10.6219-5.15624 323.9-5.1559 323.9 5.1566 10.6218 5.15626ZM54.524 30.2887 0.00450693-1.23942e-07 54.5241-30.2886C57.0134-31.6715 60.1526-30.7746 61.5355-28.2853 62.9185-25.7959 62.0216-22.6568 59.5322-21.2738L13.126 4.50739 13.126-4.50736 59.5322 21.2739C62.0215 22.6569 62.9184 25.7961 61.5355 28.2854 60.1525 30.7748 57.0133 31.6717 54.524 30.2887ZM279.997-30.2883 334.516 0.000360292 279.997 30.2889C277.507 31.6719 274.368 30.775 272.985 28.2856 271.602 25.7963 272.499 22.6571 274.989 21.2742L321.395-4.50703 321.395 4.50772 274.989-21.2736C272.499-22.6566 271.602-25.7957 272.985-28.2851 274.368-30.7744 277.508-31.6713 279.997-30.2883Z" fill="#ED7D31" transform="matrix(1 0 0 -1 3208 737)"/><text fill="#ED7D31" font-family="Calibri,Calibri_MSFontService,sans-serif" font-weight="400" font-size="183" transform="matrix(1 0 0 1 3306.21 670)">l6</text><path d="M10.6219-5.15624 323.9-5.1559 323.9 5.1566 10.6218 5.15626ZM54.524 30.2887 0.00450693-1.23942e-07 54.5241-30.2886C57.0134-31.6715 60.1526-30.7746 61.5355-28.2853 62.9185-25.7959 62.0216-22.6568 59.5322-21.2738L13.126 4.50739 13.126-4.50736 59.5322 21.2739C62.0215 22.6569 62.9184 25.7961 61.5355 28.2854 60.1525 30.7748 57.0133 31.6717 54.524 30.2887ZM279.997-30.2883 334.516 0.000360292 279.997 30.2889C277.507 31.6719 274.368 30.775 272.985 28.2856 271.602 25.7963 272.499 22.6571 274.989 21.2742L321.395-4.50703 321.395 4.50772 274.989-21.2736C272.499-22.6566 271.602-25.7957 272.985-28.2851 274.368-30.7744 277.508-31.6713 279.997-30.2883Z" fill="#ED7D31" transform="matrix(1 0 0 -1 4228 743)"/><text fill="#ED7D31" font-family="Calibri,Calibri_MSFontService,sans-serif" font-weight="400" font-size="183" transform="matrix(1 0 0 1 4325.65 676)">l<tspan font-size="183" x="41.8228" y="0">8</tspan></text><path d="M10.6219-5.15624 323.9-5.1559 323.9 5.1566 10.6218 5.15626ZM54.524 30.2887 0.00450693-1.23942e-07 54.5241-30.2886C57.0134-31.6715 60.1526-30.7746 61.5355-28.2853 62.9185-25.7959 62.0216-22.6568 59.5322-21.2738L13.126 4.50739 13.126-4.50736 59.5322 21.2739C62.0215 22.6569 62.9184 25.7961 61.5355 28.2854 60.1525 30.7748 57.0133 31.6717 54.524 30.2887ZM279.997-30.2883 334.516 0.000360292 279.997 30.2889C277.507 31.6719 274.368 30.775 272.985 28.2856 271.602 25.7963 272.499 22.6571 274.989 21.2742L321.395-4.50703 321.395 4.50772 274.989-21.2736C272.499-22.6566 271.602-25.7957 272.985-28.2851 274.368-30.7744 277.508-31.6713 279.997-30.2883Z" fill="#ED7D31" transform="matrix(1 0 0 -1 4562 743)"/><text fill="#ED7D31" font-family="Calibri,Calibri_MSFontService,sans-serif" font-weight="400" font-size="183" transform="matrix(1 0 0 1 4659.45 676)">l<tspan font-size="183" x="41.8228" y="0">9</tspan></text><path d="M10.6712-5.05823 664.825 0.963994 664.73 11.2761 10.5763 5.25384ZM54.2429 30.7893 0.00450693 4.12348e-05 54.8005-29.7854C57.3025-31.1454 60.4333-30.2196 61.7933-27.7177 63.1533-25.2157 62.2275-22.0849 59.7255-20.7249L13.0839 4.62802 13.1669-4.38635 59.3339 21.821C61.8104 23.2268 62.6783 26.3741 61.2725 28.8506 59.8667 31.3271 56.7194 32.1951 54.2429 30.7893ZM621.157-24.5715 675.396 6.21777 620.599 36.0032C618.097 37.3632 614.967 36.4375 613.607 33.9355 612.247 31.4335 613.172 28.3027 615.674 26.9427L662.316 1.5898 662.233 10.6042 616.066-15.6032C613.59-17.009 612.722-20.1563 614.128-22.6328 615.533-25.1093 618.681-25.9773 621.157-24.5715Z" fill="#ED7D31" transform="matrix(1 0 0 -1 2182 743.218)"/><text fill="#ED7D31" font-family="Calibri,Calibri_MSFontService,sans-serif" font-weight="400" font-size="183" transform="matrix(1 0 0 1 2448.48 676)">l4</text><path d="M10.6712-5.05823 664.825 0.963994 664.73 11.2761 10.5763 5.25384ZM54.2429 30.7893 0.00450693 4.12348e-05 54.8005-29.7854C57.3025-31.1454 60.4333-30.2196 61.7933-27.7177 63.1533-25.2157 62.2275-22.0849 59.7255-20.7249L13.0839 4.62802 13.1669-4.38635 59.3339 21.821C61.8104 23.2268 62.6783 26.3741 61.2725 28.8506 59.8667 31.3271 56.7194 32.1951 54.2429 30.7893ZM621.157-24.5715 675.396 6.21777 620.599 36.0032C618.097 37.3632 614.967 36.4375 613.607 33.9355 612.247 31.4335 613.172 28.3027 615.674 26.9427L662.316 1.5898 662.233 10.6042 616.066-15.6032C613.59-17.009 612.722-20.1563 614.128-22.6328 615.533-25.1093 618.681-25.9773 621.157-24.5715Z" fill="#ED7D31" transform="matrix(1 0 0 -1 3542 742.218)"/><text fill="#ED7D31" font-family="Calibri,Calibri_MSFontService,sans-serif" font-weight="400" font-size="183" transform="matrix(1 0 0 1 3808.28 675)">l<tspan font-size="183" x="41.8228" y="0">7</tspan></text><path d="M10.6226-5.15624 654.126-5.15589 654.126 5.15661 10.6226 5.15626ZM54.524 30.2887 0.00450552-2.49607e-08 54.524-30.2886C57.0134-31.6716 60.1525-30.7747 61.5355-28.2853 62.9185-25.796 62.0216-22.6568 59.5322-21.2738L13.126 4.50738 13.126-4.50737 59.5322 21.2739C62.0216 22.6569 62.9185 25.796 61.5355 28.2854 60.1525 30.7747 57.0134 31.6716 54.524 30.2887ZM610.225-30.2883 664.744 0.000359831 610.225 30.289C607.736 31.6719 604.596 30.775 603.214 28.2857 601.831 25.7963 602.727 22.6572 605.217 21.2742L651.623-4.50702 651.623 4.50773 605.217-21.2735C602.727-22.6565 601.831-25.7957 603.214-28.285 604.596-30.7744 607.736-31.6713 610.225-30.2883Z" fill="#ED7D31" transform="matrix(1 0 0 -1 4891 743)"/><text fill="#ED7D31" font-family="Calibri,Calibri_MSFontService,sans-serif" font-weight="400" font-size="183" transform="matrix(1 0 0 1 5117.37 676)">l10</text><path d="M1527 848 1527 2867.7" stroke="#70AD47" stroke-width="10.3125" stroke-miterlimit="8" stroke-dasharray="82.5 30.9375" fill="none" fill-rule="evenodd"/><path d="M1855 848 1858.13 2867.7" stroke="#70AD47" stroke-width="10.3125" stroke-miterlimit="8" stroke-dasharray="82.5 30.9375" fill="none" fill-rule="evenodd"/><path d="M0 0 3.35125 2019.7" stroke="#70AD47" stroke-width="10.3125" stroke-miterlimit="8" stroke-dasharray="82.5 30.9375" fill="none" fill-rule="evenodd" transform="matrix(-1 0 0 1 2196.35 848)"/><path d="M3546 847 3546 2866.98" stroke="#70AD47" stroke-width="10.3125" stroke-miterlimit="8" stroke-dasharray="82.5 30.9375" fill="none" fill-rule="evenodd"/><path d="M4215 847 4215 2866.98" stroke="#70AD47" stroke-width="10.3125" stroke-miterlimit="8" stroke-dasharray="82.5 30.9375" fill="none" fill-rule="evenodd"/><path d="M4545 847 4545 2866.98" stroke="#70AD47" stroke-width="10.3125" stroke-miterlimit="8" stroke-dasharray="82.5 30.9375" fill="none" fill-rule="evenodd"/><path d="M0 0 12.013 2019.7" stroke="#70AD47" stroke-width="10.3125" stroke-miterlimit="8" stroke-dasharray="82.5 30.9375" fill="none" fill-rule="evenodd" transform="matrix(-1 0 0 1 2870.01 848)"/><path d="M0 0 0.337073 2020.15" stroke="#70AD47" stroke-width="10.3125" stroke-miterlimit="8" stroke-dasharray="82.5 30.9375" fill="none" fill-rule="evenodd" transform="matrix(-1 0 0 1 3201.34 847)"/><path d="M4885 848 4885 2867.7" stroke="#70AD47" stroke-width="10.3125" stroke-miterlimit="8" stroke-dasharray="82.5 30.9375" fill="none" fill-rule="evenodd"/></g></svg>