<svg width="1560" height="1829" xmlns="http://www.w3.org/2000/svg" xmlns:xlink="http://www.w3.org/1999/xlink" overflow="hidden"><defs><clipPath id="clip0"><rect x="1367" y="703" width="1560" height="1829"/></clipPath></defs><g clip-path="url(#clip0)" transform="translate(-1367 -703)"><rect x="1524" y="847" width="1317" height="1314" stroke="#2F528F" stroke-width="10.3125" stroke-miterlimit="8" fill="none"/><path d="M1854.5 847.5 1854.5 2161.09" stroke="#4472C4" stroke-width="6.875" stroke-miterlimit="8" stroke-dasharray="27.5 20.625" fill="none" fill-rule="evenodd"/><path d="M0 0 1313.59 0.000360892" stroke="#4472C4" stroke-width="6.875" stroke-miterlimit="8" stroke-dasharray="27.5 20.625" fill="none" fill-rule="evenodd" transform="matrix(-1 0 0 1 2832.09 1171.5)"/><path d="M2513.5 847.5 2513.5 2161.09" stroke="#4472C4" stroke-width="6.875" stroke-miterlimit="8" stroke-dasharray="27.5 20.625" fill="none" fill-rule="evenodd"/><path d="M2841.36 1504.9 1523.5 1502.5" stroke="#4472C4" stroke-width="6.875" stroke-miterlimit="8" stroke-dasharray="27.5 20.625" fill="none" fill-rule="evenodd"/><path d="M0 0 1308.25 0.000360892" stroke="#4472C4" stroke-width="6.875" stroke-miterlimit="8" stroke-dasharray="27.5 20.625" fill="none" fill-rule="evenodd" transform="matrix(-1 0 0 1 2831.75 1835.5)"/><path d="M1861.31 735.062 2506.62 735.063 2506.62 741.938 1861.31 741.937ZM1887.07 757.511 1854.48 738.5 1887.07 719.489C1888.71 718.532 1890.82 719.086 1891.78 720.726 1892.73 722.366 1892.18 724.471 1890.54 725.427L1863.04 741.469 1863.04 735.531 1890.54 751.572C1892.18 752.529 1892.73 754.634 1891.78 756.274 1890.82 757.914 1888.71 758.467 1887.07 757.511ZM2480.86 719.489 2513.45 738.5 2480.86 757.511C2479.22 758.468 2477.11 757.914 2476.16 756.274 2475.2 754.634 2475.75 752.529 2477.39 751.573L2504.89 735.531 2504.89 741.469 2477.39 725.428C2475.75 724.471 2475.2 722.366 2476.16 720.727 2477.11 719.087 2479.22 718.533 2480.86 719.489Z" fill="#4472C4"/><path d="M1530.31 735.062 1847.76 735.063 1847.76 741.938 1530.31 741.937ZM1556.07 757.511 1523.48 738.5 1556.07 719.489C1557.71 718.532 1559.82 719.086 1560.78 720.726 1561.73 722.366 1561.18 724.471 1559.54 725.427L1532.04 741.469 1532.04 735.531 1559.54 751.572C1561.18 752.529 1561.73 754.634 1560.78 756.274 1559.82 757.914 1557.71 758.467 1556.07 757.511ZM1821.99 719.489 1854.58 738.5 1821.99 757.511C1820.35 758.468 1818.25 757.914 1817.29 756.274 1816.34 754.634 1816.89 752.529 1818.53 751.573L1846.03 735.531 1846.03 741.469 1818.53 725.428C1816.89 724.471 1816.34 722.366 1817.29 720.727 1818.25 719.087 1820.35 718.533 1821.99 719.489Z" fill="#ED7D31"/><path d="M2520.31 735.062 2834.56 735.063 2834.56 741.938 2520.31 741.937ZM2546.07 757.511 2513.48 738.5 2546.07 719.489C2547.71 718.532 2549.82 719.086 2550.78 720.726 2551.73 722.366 2551.18 724.471 2549.54 725.427L2522.04 741.469 2522.04 735.531 2549.54 751.572C2551.18 752.529 2551.73 754.634 2550.78 756.274 2549.82 757.914 2547.71 758.467 2546.07 757.511ZM2808.79 719.489 2841.38 738.5 2808.79 757.511C2807.15 758.468 2805.04 757.914 2804.09 756.274 2803.13 754.634 2803.69 752.529 2805.33 751.573L2832.83 735.531 2832.83 741.469 2805.33 725.428C2803.69 724.471 2803.13 722.366 2804.09 720.727 2805.04 719.087 2807.15 718.533 2808.79 719.489Z" fill="#ED7D31"/><path d="M1406.94 854.306 1406.94 1164.29 1400.06 1164.29 1400.06 854.306ZM1384.49 880.074 1403.5 847.484 1422.51 880.074C1423.47 881.714 1422.91 883.819 1421.27 884.775 1419.63 885.732 1417.53 885.178 1416.57 883.538L1400.53 856.038 1406.47 856.038 1390.43 883.538C1389.47 885.178 1387.37 885.732 1385.73 884.775 1384.09 883.819 1383.53 881.714 1384.49 880.074ZM1422.51 1138.52 1403.5 1171.11 1384.49 1138.52C1383.53 1136.88 1384.09 1134.78 1385.73 1133.82 1387.37 1132.86 1389.47 1133.42 1390.43 1135.06L1406.47 1162.56 1400.53 1162.56 1416.57 1135.06C1417.53 1133.42 1419.63 1132.86 1421.27 1133.82 1422.91 1134.78 1423.47 1136.88 1422.51 1138.52Z" fill="#ED7D31"/><path d="M1406.94 1185.31 1406.94 1495.29 1400.06 1495.29 1400.06 1185.31ZM1384.49 1211.07 1403.5 1178.48 1422.51 1211.07C1423.47 1212.71 1422.91 1214.82 1421.27 1215.78 1419.63 1216.73 1417.53 1216.18 1416.57 1214.54L1400.53 1187.04 1406.47 1187.04 1390.43 1214.54C1389.47 1216.18 1387.37 1216.73 1385.73 1215.78 1384.09 1214.82 1383.53 1212.71 1384.49 1211.07ZM1422.51 1469.52 1403.5 1502.11 1384.49 1469.52C1383.53 1467.88 1384.09 1465.78 1385.73 1464.82 1387.37 1463.86 1389.47 1464.42 1390.43 1466.06L1406.47 1493.56 1400.53 1493.56 1416.57 1466.06C1417.53 1464.42 1419.63 1463.86 1421.27 1464.82 1422.91 1465.78 1423.47 1467.88 1422.51 1469.52Z" fill="#ED7D31"/><path d="M1410.94 1519.31 1410.94 1829.29 1404.06 1829.29 1404.06 1519.31ZM1388.49 1545.07 1407.5 1512.48 1426.51 1545.07C1427.47 1546.71 1426.91 1548.82 1425.27 1549.78 1423.63 1550.73 1421.53 1550.18 1420.57 1548.54L1404.53 1521.04 1410.47 1521.04 1394.43 1548.54C1393.47 1550.18 1391.37 1550.73 1389.73 1549.78 1388.09 1548.82 1387.53 1546.71 1388.49 1545.07ZM1426.51 1803.52 1407.5 1836.11 1388.49 1803.52C1387.53 1801.88 1388.09 1799.78 1389.73 1798.82 1391.37 1797.86 1393.47 1798.42 1394.43 1800.06L1410.47 1827.56 1404.53 1827.56 1420.57 1800.06C1421.53 1798.42 1423.63 1797.86 1425.27 1798.82 1426.91 1799.78 1427.47 1801.88 1426.51 1803.52Z" fill="#ED7D31"/><path d="M1405.94 1844.31 1405.94 2154.29 1399.06 2154.29 1399.06 1844.31ZM1383.49 1870.07 1402.5 1837.48 1421.51 1870.07C1422.47 1871.71 1421.91 1873.82 1420.27 1874.78 1418.63 1875.73 1416.53 1875.18 1415.57 1873.54L1399.53 1846.04 1405.47 1846.04 1389.43 1873.54C1388.47 1875.18 1386.37 1875.73 1384.73 1874.78 1383.09 1873.82 1382.53 1871.71 1383.49 1870.07ZM1421.51 2128.52 1402.5 2161.11 1383.49 2128.52C1382.53 2126.88 1383.09 2124.78 1384.73 2123.82 1386.37 2122.86 1388.47 2123.42 1389.43 2125.06L1405.47 2152.56 1399.53 2152.56 1415.57 2125.06C1416.53 2123.42 1418.63 2122.86 1420.27 2123.82 1421.91 2124.78 1422.47 2126.88 1421.51 2128.52Z" fill="#ED7D31"/><path d="M1540.31 2333.06 1857.76 2333.06 1857.76 2339.94 1540.31 2339.94ZM1566.07 2355.51 1533.48 2336.5 1566.07 2317.49C1567.71 2316.53 1569.82 2317.09 1570.78 2318.73 1571.73 2320.37 1571.18 2322.47 1569.54 2323.43L1542.04 2339.47 1542.04 2333.53 1569.54 2349.57C1571.18 2350.53 1571.73 2352.63 1570.78 2354.27 1569.82 2355.91 1567.71 2356.47 1566.07 2355.51ZM1831.99 2317.49 1864.58 2336.5 1831.99 2355.51C1830.35 2356.47 1828.25 2355.91 1827.29 2354.27 1826.34 2352.63 1826.89 2350.53 1828.53 2349.57L1856.03 2333.53 1856.03 2339.47 1828.53 2323.43C1826.89 2322.47 1826.34 2320.37 1827.29 2318.73 1828.25 2317.09 1830.35 2316.53 1831.99 2317.49Z" fill="#ED7D31"/><path d="M1540.3 2451.06 1966.16 2451.06 1966.16 2457.94 1540.3 2457.94ZM1566.07 2473.51 1533.48 2454.5 1566.07 2435.49C1567.71 2434.53 1569.82 2435.09 1570.78 2436.73 1571.73 2438.37 1571.18 2440.47 1569.54 2441.43L1542.04 2457.47 1542.04 2451.53 1569.54 2467.57C1571.18 2468.53 1571.73 2470.63 1570.78 2472.27 1569.82 2473.91 1567.71 2474.47 1566.07 2473.51ZM1940.39 2435.49 1972.98 2454.5 1940.39 2473.51C1938.75 2474.47 1936.65 2473.91 1935.69 2472.27 1934.73 2470.63 1935.29 2468.53 1936.93 2467.57L1964.43 2451.53 1964.43 2457.47 1936.93 2441.43C1935.29 2440.47 1934.73 2438.37 1935.69 2436.73 1936.65 2435.09 1938.75 2434.53 1940.39 2435.49Z" fill="#4472C4"/><text font-family="Calibri,Calibri_MSFontService,sans-serif" font-weight="400" font-size="83" transform="matrix(1 0 0 1 2005.3 2336)">Largeur/hauteur boîte<tspan font-size="83" x="-0.000366211" y="124">Longueur  boîte</tspan></text></g></svg>