<svg width="1510" height="1494" xmlns="http://www.w3.org/2000/svg" xmlns:xlink="http://www.w3.org/1999/xlink" overflow="hidden"><defs><clipPath id="clip0"><rect x="1054" y="439" width="1510" height="1494"/></clipPath></defs><g clip-path="url(#clip0)" transform="translate(-1054 -439)"><rect x="1211" y="583" width="1317" height="1314" stroke="#2F528F" stroke-width="10.3125" stroke-miterlimit="8" fill="none"/><path d="M1541.5 583.5 1541.5 1897.09" stroke="#4472C4" stroke-width="6.875" stroke-miterlimit="8" stroke-dasharray="27.5 20.625" fill="none" fill-rule="evenodd"/><path d="M0 0 1313.59 0.000360892" stroke="#4472C4" stroke-width="6.875" stroke-miterlimit="8" stroke-dasharray="27.5 20.625" fill="none" fill-rule="evenodd" transform="matrix(-1 0 0 1 2519.09 907.5)"/><path d="M2200.5 583.5 2200.5 1897.09" stroke="#4472C4" stroke-width="6.875" stroke-miterlimit="8" stroke-dasharray="27.5 20.625" fill="none" fill-rule="evenodd"/><path d="M2528.36 1240.9 1210.5 1238.5" stroke="#4472C4" stroke-width="6.875" stroke-miterlimit="8" stroke-dasharray="27.5 20.625" fill="none" fill-rule="evenodd"/><path d="M0 0 1308.25 0.000360892" stroke="#4472C4" stroke-width="6.875" stroke-miterlimit="8" stroke-dasharray="27.5 20.625" fill="none" fill-rule="evenodd" transform="matrix(-1 0 0 1 2518.75 1571.5)"/><path d="M1548.31 471.062 2193.62 471.063 2193.62 477.938 1548.31 477.937ZM1574.07 493.511 1541.48 474.5 1574.07 455.489C1575.71 454.532 1577.82 455.086 1578.78 456.726 1579.73 458.366 1579.18 460.471 1577.54 461.427L1550.04 477.469 1550.04 471.531 1577.54 487.572C1579.18 488.529 1579.73 490.634 1578.78 492.274 1577.82 493.913 1575.71 494.467 1574.07 493.511ZM2167.86 455.489 2200.45 474.5 2167.86 493.511C2166.22 494.468 2164.11 493.914 2163.16 492.274 2162.2 490.634 2162.75 488.529 2164.39 487.573L2191.89 471.531 2191.89 477.469 2164.39 461.428C2162.75 460.471 2162.2 458.366 2163.16 456.727 2164.11 455.087 2166.22 454.533 2167.86 455.489Z" fill="#4472C4"/><path d="M1217.31 471.062 1534.76 471.063 1534.76 477.938 1217.31 477.937ZM1243.07 493.511 1210.48 474.5 1243.07 455.489C1244.71 454.532 1246.82 455.086 1247.78 456.726 1248.73 458.366 1248.18 460.471 1246.54 461.427L1219.04 477.469 1219.04 471.531 1246.54 487.572C1248.18 488.529 1248.73 490.634 1247.78 492.274 1246.82 493.914 1244.71 494.467 1243.07 493.511ZM1508.99 455.489 1541.58 474.5 1508.99 493.511C1507.35 494.468 1505.25 493.914 1504.29 492.274 1503.34 490.634 1503.89 488.529 1505.53 487.573L1533.03 471.531 1533.03 477.469 1505.53 461.428C1503.89 460.471 1503.34 458.366 1504.29 456.726 1505.25 455.087 1507.35 454.533 1508.99 455.489Z" fill="#ED7D31"/><path d="M2207.31 471.062 2521.56 471.063 2521.56 477.938 2207.31 477.937ZM2233.07 493.511 2200.48 474.5 2233.07 455.489C2234.71 454.532 2236.82 455.086 2237.78 456.726 2238.73 458.366 2238.18 460.471 2236.54 461.427L2209.04 477.469 2209.04 471.531 2236.54 487.572C2238.18 488.529 2238.73 490.634 2237.78 492.274 2236.82 493.914 2234.71 494.467 2233.07 493.511ZM2495.79 455.489 2528.38 474.5 2495.79 493.511C2494.15 494.468 2492.04 493.914 2491.09 492.274 2490.13 490.634 2490.69 488.529 2492.33 487.573L2519.83 471.531 2519.83 477.469 2492.33 461.428C2490.69 460.471 2490.13 458.366 2491.09 456.726 2492.04 455.087 2494.15 454.533 2495.79 455.489Z" fill="#ED7D31"/><path d="M1092.94 590.306 1092.94 900.289 1086.06 900.289 1086.06 590.306ZM1070.49 616.074 1089.5 583.484 1108.51 616.074C1109.47 617.714 1108.91 619.819 1107.27 620.775 1105.63 621.732 1103.53 621.178 1102.57 619.538L1086.53 592.038 1092.47 592.038 1076.43 619.538C1075.47 621.178 1073.37 621.732 1071.73 620.775 1070.09 619.819 1069.53 617.714 1070.49 616.074ZM1108.51 874.521 1089.5 907.111 1070.49 874.521C1069.53 872.881 1070.09 870.776 1071.73 869.82 1073.37 868.863 1075.47 869.417 1076.43 871.057L1092.47 898.557 1086.53 898.557 1102.57 871.057C1103.53 869.417 1105.63 868.863 1107.27 869.82 1108.91 870.776 1109.47 872.881 1108.51 874.521Z" fill="#ED7D31"/><path d="M1093.94 921.306 1093.94 1231.29 1087.06 1231.29 1087.06 921.306ZM1071.49 947.074 1090.5 914.484 1109.51 947.074C1110.47 948.714 1109.91 950.819 1108.27 951.775 1106.63 952.732 1104.53 952.178 1103.57 950.538L1087.53 923.038 1093.47 923.038 1077.43 950.538C1076.47 952.178 1074.37 952.732 1072.73 951.775 1071.09 950.819 1070.53 948.714 1071.49 947.074ZM1109.51 1205.52 1090.5 1238.11 1071.49 1205.52C1070.53 1203.88 1071.09 1201.78 1072.73 1200.82 1074.37 1199.86 1076.47 1200.42 1077.43 1202.06L1093.47 1229.56 1087.53 1229.56 1103.57 1202.06C1104.53 1200.42 1106.63 1199.86 1108.27 1200.82 1109.91 1201.78 1110.47 1203.88 1109.51 1205.52Z" fill="#ED7D31"/><path d="M1097.94 1255.31 1097.94 1565.29 1091.06 1565.29 1091.06 1255.31ZM1075.49 1281.07 1094.5 1248.48 1113.51 1281.07C1114.47 1282.71 1113.91 1284.82 1112.27 1285.78 1110.63 1286.73 1108.53 1286.18 1107.57 1284.54L1091.53 1257.04 1097.47 1257.04 1081.43 1284.54C1080.47 1286.18 1078.37 1286.73 1076.73 1285.78 1075.09 1284.82 1074.53 1282.71 1075.49 1281.07ZM1113.51 1539.52 1094.5 1572.11 1075.49 1539.52C1074.53 1537.88 1075.09 1535.78 1076.73 1534.82 1078.37 1533.86 1080.47 1534.42 1081.43 1536.06L1097.47 1563.56 1091.53 1563.56 1107.57 1536.06C1108.53 1534.42 1110.63 1533.86 1112.27 1534.82 1113.91 1535.78 1114.47 1537.88 1113.51 1539.52Z" fill="#ED7D31"/><path d="M1092.94 1580.31 1092.94 1890.29 1086.06 1890.29 1086.06 1580.31ZM1070.49 1606.07 1089.5 1573.48 1108.51 1606.07C1109.47 1607.71 1108.91 1609.82 1107.27 1610.78 1105.63 1611.73 1103.53 1611.18 1102.57 1609.54L1086.53 1582.04 1092.47 1582.04 1076.43 1609.54C1075.47 1611.18 1073.37 1611.73 1071.73 1610.78 1070.09 1609.82 1069.53 1607.71 1070.49 1606.07ZM1108.51 1864.52 1089.5 1897.11 1070.49 1864.52C1069.53 1862.88 1070.09 1860.78 1071.73 1859.82 1073.37 1858.86 1075.47 1859.42 1076.43 1861.06L1092.47 1888.56 1086.53 1888.56 1102.57 1861.06C1103.53 1859.42 1105.63 1858.86 1107.27 1859.82 1108.91 1860.78 1109.47 1862.88 1108.51 1864.52Z" fill="#ED7D31"/></g></svg>